<svg xmlns="http://www.w3.org/2000/svg" width="158" height="55" viewBox="0 0 158 55" fill="none">
<mask id="mask0_1375_24729" style="mask-type:alpha" maskUnits="userSpaceOnUse" x="0" y="0" width="158" height="55">
<rect width="158" height="54.5611" rx="16" fill="#1E2534"/>
</mask>
<g mask="url(#mask0_1375_24729)">
<rect x="0.5" y="0.5" width="157" height="53.5611" rx="15.5" stroke="#302A25"/>
<path d="M55.4993 16.1669L54.8963 14.2781C54.7484 13.8116 54.6232 13.291 54.5094 12.8472H54.4867C54.3757 13.291 54.2591 13.8229 54.1254 14.2781L53.5337 16.1669H55.4993ZM53.3062 17.2222L52.6462 19.3955H51.2012L53.6589 11.7322H55.4424L57.9314 19.3955H56.4323L55.7383 17.2222" fill="#302A25"/>
<path d="M60.0221 13.8601L60.921 16.6649C61.0803 17.1541 61.1912 17.5979 61.2936 18.053H61.3278C61.4302 17.5979 61.5553 17.1655 61.7032 16.6649L62.5907 13.8601H64.0557L61.9422 19.3956H60.5683L58.5088 13.8601" fill="#302A25"/>
<path d="M68.2737 16.6873C67.2838 16.6759 66.3394 16.8807 66.3394 17.7227C66.3394 18.2689 66.6921 18.5192 67.1359 18.5192C67.702 18.5192 68.103 18.1551 68.2367 17.7568C68.2737 17.6544 68.2737 17.552 68.2737 17.4496V16.6873ZM69.6363 18.0641C69.6363 18.5647 69.659 19.054 69.7273 19.3925H68.4643L68.3647 18.7809H68.3278C68.0006 19.2104 67.4203 19.5176 66.6921 19.5176C65.5771 19.5176 64.9541 18.7126 64.9541 17.8706C64.9541 16.4825 66.1915 15.7685 68.2367 15.7799V15.6888C68.2367 15.3247 68.0917 14.7217 67.1131 14.7217C66.567 14.7217 65.9981 14.8924 65.6226 15.1313L65.3495 14.221C65.7591 13.9707 66.4759 13.7346 67.3521 13.7346C69.1242 13.7346 69.6363 14.8582 69.6363 16.0757" fill="#302A25"/>
<path d="M71.6138 13.8598H73.0105V19.3954H71.6138V13.8598ZM72.3051 13.0634C71.8414 13.0634 71.5342 12.722 71.5342 12.3124C71.5342 11.88 71.8499 11.55 72.3193 11.55C72.7943 11.55 73.0902 11.88 73.1015 12.3124C73.1015 12.722 72.7943 13.0634 72.3193 13.0634" fill="#302A25"/>
<path d="M75.0215 19.3958H76.421V11.3115H75.0215V19.3958Z" fill="#302A25"/>
<path d="M81.3763 16.6873C80.3863 16.6759 79.4419 16.8807 79.4419 17.7227C79.4419 18.2689 79.7947 18.5192 80.2384 18.5192C80.8073 18.5192 81.2056 18.1551 81.3421 17.7568C81.3763 17.6544 81.3763 17.552 81.3763 17.4496V16.6873ZM82.7388 18.0641C82.7388 18.5647 82.7616 19.054 82.8298 19.3925H81.5697L81.4673 18.7809H81.4331C81.1032 19.2104 80.5229 19.5176 79.7947 19.5176C78.6824 19.5176 78.0566 18.7126 78.0566 17.8706C78.0566 16.4825 79.2969 15.7685 81.3421 15.7799V15.6888C81.3421 15.3247 81.1942 14.7217 80.2157 14.7217C79.6695 14.7217 79.1006 14.8924 78.728 15.1313L78.4549 14.221C78.8645 13.9707 79.5785 13.7346 80.4546 13.7346C82.2268 13.7346 82.7388 14.8582 82.7388 16.0757" fill="#302A25"/>
<path d="M86.115 17.1088C86.115 17.2225 86.1263 17.3363 86.1491 17.4387C86.297 18.0076 86.7863 18.4173 87.3865 18.4173C88.2626 18.4173 88.7974 17.7232 88.7974 16.5996C88.7974 15.621 88.3309 14.8246 87.3979 14.8246C86.829 14.8246 86.3084 15.2342 86.1605 15.8486C86.1377 15.951 86.115 16.0762 86.115 16.2127V17.1088ZM84.7154 11.3115H86.115V14.6198H86.1377C86.4791 14.085 87.0793 13.7351 87.9099 13.7351C89.2639 13.7351 90.2282 14.8587 90.2168 16.5427C90.2168 18.531 88.9567 19.521 87.7051 19.521C86.9882 19.521 86.3539 19.2479 85.9557 18.5652H85.9329L85.8646 19.3958H84.6699C84.6927 19.0203 84.7154 18.4059 84.7154 17.8483" fill="#302A25"/>
<path d="M91.8643 19.3958H93.2609V11.3115H91.8643V19.3958Z" fill="#302A25"/>
<path d="M98.7054 16.0416C98.7168 15.5295 98.4892 14.6876 97.559 14.6876C96.6943 14.6876 96.3302 15.4727 96.2733 16.0416H98.7054ZM96.2733 17.0173C96.3074 18.0185 97.0925 18.4509 97.98 18.4509C98.6258 18.4509 99.0809 18.3485 99.5133 18.2006L99.7181 19.1535C99.2402 19.3612 98.5802 19.5063 97.7866 19.5063C95.9888 19.5063 94.9307 18.4054 94.9307 16.7129C94.9307 15.1768 95.8637 13.7346 97.6387 13.7346C99.4336 13.7346 100.025 15.211 100.025 16.4284C100.025 16.6901 100.003 16.8949 99.9798 17.0173" fill="#302A25"/>
<path d="M106.968 18.5078C107.762 18.5078 108.32 17.7341 108.32 16.6105C108.32 15.7457 107.933 14.7444 106.98 14.7444C105.99 14.7444 105.592 15.7116 105.592 16.6332C105.592 17.7 106.126 18.5078 106.954 18.5078H106.968ZM106.923 19.5205C105.364 19.5205 104.149 18.4509 104.149 16.6674C104.149 14.8468 105.341 13.7346 107.014 13.7346C108.661 13.7346 109.765 14.8924 109.765 16.5763C109.765 18.6102 108.331 19.5205 106.934 19.5205" fill="#302A25"/>
<path d="M111.41 15.5068C111.41 14.8696 111.39 14.3348 111.367 13.8569H112.582L112.65 14.6876H112.684C112.935 14.2552 113.538 13.7346 114.459 13.7346C115.424 13.7346 116.425 14.3576 116.425 16.1098V19.3925H115.025V16.2691C115.025 15.4727 114.729 14.8696 113.97 14.8696C113.412 14.8696 113.026 15.2678 112.878 15.6888C112.832 15.8026 112.809 15.9733 112.809 16.1326V19.3925H111.41" fill="#302A25"/>
<path d="M122.868 12.437V13.8565H124.196V14.9033H122.868V17.3354C122.868 18.0181 123.05 18.3594 123.582 18.3594C123.832 18.3594 123.969 18.348 124.128 18.3025L124.151 19.3579C123.946 19.4403 123.571 19.5058 123.138 19.5058C122.618 19.5058 122.197 19.3351 121.935 19.0535C121.628 18.7349 121.491 18.2229 121.491 17.4947V14.9033H120.706V13.8565H121.491V12.8239" fill="#302A25"/>
<path d="M125.752 11.3115H127.151V14.6084H127.174C127.345 14.3467 127.584 14.1305 127.868 13.9826C128.153 13.8261 128.48 13.7351 128.833 13.7351C129.777 13.7351 130.764 14.3581 130.764 16.1331V19.3958H129.367V16.281C129.367 15.4845 129.072 14.8701 128.298 14.8701C127.755 14.8701 127.368 15.2342 127.208 15.6552C127.163 15.7803 127.151 15.9283 127.151 16.0762V19.3958H125.752" fill="#302A25"/>
<path d="M136.173 16.0416C136.185 15.5295 135.957 14.6876 135.024 14.6876C134.159 14.6876 133.798 15.4727 133.741 16.0416H136.173ZM133.741 17.0173C133.775 18.0185 134.557 18.4509 135.445 18.4509C136.094 18.4509 136.549 18.3485 136.978 18.2006L137.186 19.1535C136.708 19.3612 136.048 19.5063 135.252 19.5063C133.457 19.5063 132.398 18.4054 132.398 16.7129C132.398 15.1768 133.331 13.7346 135.104 13.7346C136.899 13.7346 137.49 15.211 137.49 16.4284C137.49 16.6901 137.467 16.8949 137.445 17.0173" fill="#302A25"/>
<path d="M35.9145 26.8259C35.8775 23.0341 39.0179 21.188 39.163 21.1027C37.3851 18.5084 34.6287 18.1557 33.6587 18.1272C31.3461 17.8855 29.1017 19.5154 27.9241 19.5154C26.7208 19.5154 24.9031 18.1529 22.9489 18.1927C20.4286 18.2325 18.0733 19.6918 16.7819 21.9532C14.1194 26.5699 16.1049 33.3514 18.6593 37.0835C19.9394 38.9097 21.4299 40.9521 23.3841 40.8781C25.2957 40.7985 26.0097 39.6607 28.3166 39.6607C30.6037 39.6607 31.275 40.8781 33.269 40.8326C35.32 40.7985 36.6114 38.9979 37.8431 37.1517C39.3223 35.0581 39.914 32.9958 39.9367 32.8906C39.8884 32.8735 35.9543 31.3716 35.9145 26.8259Z" fill="#302A25"/>
<path d="M32.1482 15.6748C33.1751 14.3891 33.8834 12.6368 33.6843 10.8618C32.1966 10.9301 30.3362 11.8916 29.2638 13.1489C28.3166 14.2582 27.4661 16.0759 27.6879 17.7827C29.3605 17.9078 31.0758 16.9407 32.1482 15.6748Z" fill="#302A25"/>
<path d="M58.9834 34.0649L57.6635 29.9886C57.5241 29.5733 57.2624 28.5919 56.8756 27.0502H56.8301C56.6764 27.7129 56.4261 28.6943 56.0876 29.9886L54.7905 34.0649H58.9834ZM63.5461 40.5761H60.8807L59.4215 35.9906H54.3524L52.9614 40.5761H50.3672L55.3964 24.9651H58.497" fill="#302A25"/>
<path d="M73.9238 34.901C73.9238 33.803 73.6763 32.9012 73.1813 32.1901C72.6409 31.4505 71.9155 31.0779 71.0052 31.0779C70.388 31.0779 69.8247 31.2855 69.3269 31.6923C68.8263 32.1048 68.4963 32.6395 68.3399 33.3052C68.2631 33.6124 68.2261 33.8655 68.2261 34.0647V35.9421C68.2261 36.7613 68.4764 37.4526 68.9771 38.0158C69.4805 38.5818 70.1319 38.8606 70.9341 38.8606C71.8785 38.8606 72.6124 38.4994 73.133 37.7711C73.6621 37.0458 73.9238 36.09 73.9238 34.901ZM76.4725 34.8071C76.4725 36.7215 75.9548 38.2377 74.9194 39.347C73.992 40.3369 72.84 40.8291 71.4689 40.8291C69.984 40.8291 68.9202 40.2943 68.2716 39.2304H68.2261V45.1613H65.7229V33.0236C65.7229 31.8203 65.6944 30.5858 65.6318 29.3171H67.8307L67.9701 31.1035H68.0184C68.8519 29.758 70.1177 29.0867 71.8159 29.0867C73.1415 29.0867 74.2537 29.6129 75.1384 30.6626C76.0259 31.7151 76.4725 33.0947 76.4725 34.8071Z" fill="#302A25"/>
<path d="M86.8692 34.901C86.8692 33.803 86.6217 32.9012 86.1267 32.1901C85.5863 31.4505 84.8609 31.0779 83.9506 31.0779C83.3334 31.0779 82.773 31.2855 82.2723 31.6923C81.7688 32.1048 81.4446 32.6395 81.291 33.3052C81.2113 33.6124 81.1743 33.8655 81.1743 34.0647V35.9421C81.1743 36.7613 81.4218 37.4526 81.9224 38.0158C82.4259 38.5818 83.0773 38.8606 83.8824 38.8606C84.8239 38.8606 85.5578 38.4994 86.0812 37.7711C86.6046 37.0458 86.8692 36.09 86.8692 34.901ZM89.415 34.8071C89.415 36.7215 88.9002 38.2377 87.8648 39.347C86.9374 40.3369 85.7882 40.8291 84.4143 40.8291C82.9323 40.8291 81.8684 40.2943 81.217 39.2304H81.1743V45.1613H78.6711V33.0236C78.6711 31.8203 78.6398 30.5858 78.5801 29.3171H80.7789L80.9183 31.1035H80.9667C81.7973 29.758 83.0631 29.0867 84.7613 29.0867C86.0897 29.0867 87.1963 29.6129 88.0866 30.6626C88.9741 31.7151 89.415 33.0947 89.415 34.8071Z" fill="#302A25"/>
<path d="M103.894 36.1984C103.894 37.524 103.433 38.6049 102.506 39.4412C101.487 40.3515 100.073 40.8066 98.2557 40.8066C96.5746 40.8066 95.2263 40.4823 94.2051 39.8338L94.7854 37.7515C95.8862 38.4143 97.0895 38.7443 98.4037 38.7443C99.3452 38.7443 100.079 38.5338 100.605 38.11C101.129 37.6833 101.39 37.1144 101.39 36.4032C101.39 35.7717 101.177 35.2341 100.745 34.8017C100.312 34.3693 99.5927 33.9683 98.5886 33.5956C95.8549 32.5744 94.4895 31.081 94.4895 29.1183C94.4895 27.8354 94.9674 26.7829 95.926 25.9636C96.8818 25.1444 98.1562 24.7319 99.7463 24.7319C101.169 24.7319 102.349 24.9823 103.291 25.4744L102.665 27.5139C101.786 27.036 100.79 26.7942 99.678 26.7942C98.7962 26.7942 98.1107 27.0104 97.6186 27.4428C97.2033 27.8297 96.9928 28.3019 96.9928 28.8566C96.9928 29.4738 97.2289 29.983 97.7096 30.3841C98.1249 30.7539 98.8816 31.155 99.9796 31.5902C101.322 32.1307 102.309 32.7622 102.944 33.4875C103.575 34.2129 103.894 35.1175 103.894 36.1984Z" fill="#302A25"/>
<path d="M112.16 31.194H109.404V36.6584C109.404 38.0494 109.89 38.7435 110.866 38.7435C111.31 38.7435 111.682 38.7065 111.975 38.6297L112.043 40.527C111.554 40.7147 110.903 40.8058 110.101 40.8058C109.114 40.8058 108.34 40.5042 107.782 39.904C107.228 39.301 106.949 38.2883 106.949 36.8689V31.194H105.305V29.3166H106.949V27.2571L109.404 26.5146V29.3166H112.16" fill="#302A25"/>
<path d="M122.006 34.9351C122.006 33.8968 121.781 33.0093 121.331 32.2641C120.811 31.3652 120.06 30.9157 119.087 30.9157C118.083 30.9157 117.318 31.3652 116.794 32.2641C116.345 33.0093 116.126 33.9139 116.126 34.9835C116.126 36.0217 116.345 36.9092 116.794 37.6517C117.335 38.5506 118.091 39 119.067 39C120.02 39 120.771 38.5449 121.312 37.6289C121.775 36.8723 122.006 35.9734 122.006 34.9351ZM124.6 34.8555C124.6 36.585 124.108 38.0044 123.118 39.1166C122.082 40.2601 120.708 40.8291 118.996 40.8291C117.341 40.8291 116.026 40.2801 115.045 39.1849C114.066 38.0897 113.577 36.7073 113.577 35.0404C113.577 33.2938 114.081 31.8658 115.093 30.7564C116.103 29.6414 117.466 29.0867 119.178 29.0867C120.831 29.0867 122.162 29.6357 123.163 30.7308C124.122 31.8004 124.6 33.1715 124.6 34.8555Z" fill="#302A25"/>
<path d="M132.73 31.5188C132.482 31.4733 132.221 31.4505 131.942 31.4505C131.063 31.4505 130.38 31.7833 129.902 32.4461C129.487 33.0349 129.28 33.7745 129.28 34.6677V40.5759H126.779L126.799 32.8643C126.799 31.5643 126.768 30.3838 126.708 29.3171H128.887L128.978 31.4733H129.043C129.308 30.7337 129.726 30.1363 130.295 29.6897C130.853 29.2886 131.456 29.0867 132.104 29.0867C132.335 29.0867 132.545 29.1037 132.73 29.1322" fill="#302A25"/>
<path d="M141.528 33.7653C141.545 33.0257 141.383 32.3828 141.044 31.8424C140.612 31.1483 139.943 30.7984 139.05 30.7984C138.234 30.7984 137.568 31.1398 137.059 31.8196C136.644 32.3601 136.393 33.0087 136.322 33.7653H141.528ZM143.912 34.4139C143.912 34.8633 143.883 35.2388 143.823 35.5489H136.322C136.348 36.6611 136.712 37.5116 137.409 38.0976C138.04 38.6238 138.86 38.8827 139.864 38.8827C140.973 38.8827 141.986 38.7063 142.899 38.3508L143.292 40.0888C142.225 40.5496 140.968 40.7857 139.514 40.7857C137.77 40.7857 136.399 40.2708 135.404 39.2411C134.411 38.2171 133.91 36.8374 133.91 35.1079C133.91 33.4097 134.371 31.996 135.301 30.8695C136.271 29.6634 137.585 29.0632 139.235 29.0632C140.857 29.0632 142.088 29.6634 142.922 30.8695C143.585 31.8253 143.912 33.0087 143.912 34.4139Z" fill="#302A25"/>
</g>
</svg>