<svg xmlns="http://www.w3.org/2000/svg" width="47" height="47" viewBox="0 0 52 52" fill="none">
<rect width="52" height="52" rx="16" fill="white"/>
<rect x="0.5" y="0.5" width="51" height="51" rx="15.5" stroke="#A9A4A1" stroke-opacity="0.4"/>
<path d="M37.6464 10.4873C36.0778 10.4873 34.6738 11.25 33.7984 12.42C32.9231 11.25 31.5191 10.4873 29.9504 10.4873C27.2898 10.4873 25.1318 12.654 25.1318 15.332C25.1318 16.3633 25.2964 17.3166 25.5824 18.2006C26.9518 22.534 31.1724 25.1253 33.2611 25.836C33.5558 25.94 34.0411 25.94 34.3358 25.836C36.4244 25.1253 40.6451 22.534 42.0144 18.2006C42.3004 17.3166 42.4651 16.3633 42.4651 15.332C42.4651 12.654 40.3071 10.4873 37.6464 10.4873Z" fill="#EE2E75"/>
</svg>