<svg xmlns="http://www.w3.org/2000/svg" width="158" height="48" viewBox="0 0 158 48" fill="none">
<mask id="mask0_5994_47483" style="mask-type:alpha" maskUnits="userSpaceOnUse" x="0" y="0" width="158" height="48">
<rect x="0.5" width="157" height="48" rx="16" fill="#1E2534"/>
</mask>
<g mask="url(#mask0_5994_47483)">
<rect x="0.5" width="157" height="48" rx="16" fill="#161616"/>
<path d="M82.0059 18.2759C81.2322 18.2759 80.58 18.0052 80.0643 17.4724C79.5527 16.9545 79.2671 16.2404 79.2799 15.5115C79.2799 14.7336 79.5442 14.075 80.0643 13.5528C80.5779 13.02 81.2301 12.7493 82.0038 12.7493C82.7689 12.7493 83.4211 13.02 83.9455 13.5528C84.4655 14.092 84.7298 14.7506 84.7298 15.5115C84.7213 16.2916 84.457 16.9502 83.9455 17.4702C83.4318 18.0074 82.7796 18.2759 82.0059 18.2759ZM58.9852 18.2759C58.2285 18.2759 57.5721 18.0095 57.035 17.483C56.5021 16.9587 56.2314 16.2959 56.2314 15.5137C56.2314 14.7314 56.5021 14.0686 57.035 13.5443C57.5614 13.0178 58.2179 12.7514 58.9852 12.7514C59.3603 12.7514 59.7247 12.826 60.0743 12.9773C60.4174 13.1244 60.6966 13.3247 60.9034 13.5698L60.9545 13.6317L60.3769 14.1986L60.3173 14.1283C59.9912 13.7404 59.5542 13.5507 58.9766 13.5507C58.4608 13.5507 58.0111 13.734 57.6403 14.0963C57.2673 14.4608 57.0776 14.9382 57.0776 15.5158C57.0776 16.0934 57.2673 16.5708 57.6403 16.9353C58.0111 17.2976 58.4608 17.4809 58.9766 17.4809C59.5265 17.4809 59.989 17.2976 60.3492 16.9353C60.5624 16.7221 60.6945 16.4237 60.7414 16.0465H58.8892V15.2494H61.5364L61.547 15.3218C61.5662 15.4561 61.5854 15.5946 61.5854 15.7225C61.5854 16.4578 61.3637 17.0525 60.9247 17.4916C60.426 18.0116 59.7738 18.2759 58.9852 18.2759ZM89.5935 18.1629H88.7772L86.2772 14.1624L86.2985 14.8828V18.1608H85.4822V12.8644H86.4136L86.4391 12.9049L88.79 16.6731L88.7687 15.9548V12.8644H89.5935V18.1629ZM75.8719 18.1629H75.0449V13.6615H73.6105V12.8644H77.3041V13.6615H75.8697V18.1629H75.8719ZM72.937 18.1629H72.1122V12.8644H72.937V18.1629ZM68.3013 18.1629H67.4765V13.6615H66.0421V12.8644H69.7357V13.6615H68.3013V18.1629ZM65.5199 18.1544H62.357V12.8644H65.5199V13.6615H63.1839V15.1151H65.2918V15.9037H63.1839V17.3573H65.5199V18.1544ZM80.6696 16.9246C81.0383 17.2933 81.4859 17.4788 82.0059 17.4788C82.5409 17.4788 82.9778 17.2976 83.3423 16.9246C83.7046 16.5623 83.8879 16.087 83.8879 15.5137C83.8879 14.9403 83.7046 14.4629 83.3444 14.1027C82.9757 13.734 82.526 13.5485 82.008 13.5485C81.4731 13.5485 81.0362 13.7297 80.6738 14.1027C80.3115 14.465 80.1282 14.9403 80.1282 15.5137C80.1282 16.087 80.3094 16.5644 80.6696 16.9246Z" fill="white"/>
<path fill-rule="evenodd" clip-rule="evenodd" d="M79.2032 25.561C77.1891 25.561 75.5565 27.0892 75.5565 29.1971C75.5565 31.2858 77.1998 32.8332 79.2032 32.8332C81.2174 32.8332 82.85 31.2944 82.85 29.1971C82.85 27.0892 81.2174 25.561 79.2032 25.561ZM79.2032 31.3924C78.1013 31.3924 77.1529 30.4802 77.1529 29.1886C77.1529 27.8778 78.1035 26.9847 79.2032 26.9847C80.3052 26.9847 81.2536 27.8778 81.2536 29.1886C81.2558 30.4887 80.3052 31.3924 79.2032 31.3924ZM71.2468 25.561C69.2327 25.561 67.6001 27.0892 67.6001 29.1971C67.6001 31.2858 69.2433 32.8332 71.2468 32.8332C73.261 32.8332 74.8936 31.2944 74.8936 29.1971C74.8936 27.0892 73.2588 25.561 71.2468 25.561ZM71.2468 31.3924C70.1449 31.3924 69.1965 30.4802 69.1965 29.1886C69.1965 27.8778 70.147 26.9847 71.2468 26.9847C72.3488 26.9847 73.2972 27.8778 73.2972 29.1886C73.2972 30.4887 72.3488 31.3924 71.2468 31.3924ZM61.7793 26.6714V28.2103H65.4729C65.36 29.0735 65.0744 29.7108 64.6374 30.1477C64.0961 30.6891 63.2606 31.2773 61.7878 31.2773C59.5179 31.2773 57.7425 29.4443 57.7425 27.1744C57.7425 24.9045 59.5179 23.0715 61.7878 23.0715C63.0133 23.0715 63.9064 23.5554 64.5692 24.1735L65.6605 23.0822C64.7398 22.1998 63.5142 21.5242 61.7963 21.5242C58.6824 21.5242 56.0693 24.0605 56.0693 27.1659C56.0693 30.2798 58.6803 32.8076 61.7963 32.8076C63.478 32.8076 64.7398 32.2577 65.7372 31.2219C66.7539 30.2052 67.0757 28.7708 67.0757 27.6135C67.0757 27.2533 67.048 26.9293 66.9905 26.6544H61.7771C61.7793 26.6522 61.7793 26.6714 61.7793 26.6714ZM100.504 27.8693C100.199 27.0529 99.2786 25.5525 97.3902 25.5525C95.5189 25.5525 93.963 27.0252 93.963 29.1886C93.963 31.2304 95.5018 32.8247 97.5714 32.8247C99.2339 32.8247 100.202 31.808 100.6 31.2112L99.366 30.3843C98.9568 30.9917 98.3877 31.3903 97.5799 31.3903C96.7636 31.3903 96.1924 31.0194 95.813 30.2884L100.675 28.2742C100.675 28.2763 100.504 27.8693 100.504 27.8693ZM95.5466 29.0841C95.5082 27.6796 96.6379 26.9656 97.4456 26.9656C98.0829 26.9656 98.6136 27.2789 98.7948 27.735L95.5466 29.0841ZM91.5972 32.6073H93.1936V21.9249H91.5972V32.6073ZM88.9756 26.3688H88.918C88.5578 25.9404 87.8737 25.5525 86.9998 25.5525C85.186 25.5525 83.515 27.1488 83.515 29.1992C83.515 31.2411 85.1775 32.8183 86.9998 32.8183C87.863 32.8183 88.5578 32.4282 88.918 31.9913H88.9756V32.5135C88.9756 33.901 88.2339 34.6491 87.0382 34.6491C86.0599 34.6491 85.4524 33.9458 85.2052 33.3575L83.8177 33.9373C84.2162 34.8964 85.2798 36.0835 87.036 36.0835C88.9074 36.0835 90.4931 34.9816 90.4931 32.294V25.7699H88.9841V26.3688C88.9862 26.3688 88.9756 26.3688 88.9756 26.3688ZM87.1426 31.3924C86.0407 31.3924 85.1199 30.4717 85.1199 29.1992C85.1199 27.9161 86.0407 26.9869 87.1426 26.9869C88.2339 26.9869 89.08 27.9268 89.08 29.1992C89.0907 30.4717 88.236 31.3924 87.1426 31.3924ZM107.979 21.9249H104.162V32.6073H105.758V28.5619H107.981C109.748 28.5619 111.485 27.281 111.485 25.2477C111.485 23.2143 109.754 21.9249 107.979 21.9249ZM108.026 27.07H105.756V23.404H108.026C109.221 23.404 109.897 24.3909 109.897 25.237C109.897 26.0746 109.213 27.07 108.026 27.07ZM117.883 25.5418C116.724 25.5418 115.528 26.0555 115.034 27.1744L116.449 27.7627C116.754 27.1744 117.312 26.9741 117.903 26.9741C118.73 26.9741 119.565 27.4686 119.584 28.3509V28.4639C119.299 28.3019 118.672 28.0547 117.922 28.0547C116.394 28.0547 114.844 28.8902 114.844 30.4567C114.844 31.8911 116.097 32.8119 117.493 32.8119C118.565 32.8119 119.156 32.3281 119.525 31.7675H119.582V32.5945H121.121V28.5023C121.121 26.5968 119.706 25.5418 117.883 25.5418ZM117.683 31.3924C117.161 31.3924 116.43 31.1366 116.43 30.4802C116.43 29.6532 117.342 29.3399 118.12 29.3399C118.823 29.3399 119.156 29.4912 119.574 29.7001C119.458 30.6592 118.649 31.3839 117.683 31.3924ZM126.735 25.7699L124.902 30.4034H124.844L122.945 25.7699H121.227L124.077 32.2471L122.453 35.847H124.115L128.5 25.7699H126.735ZM112.365 32.6073H113.962V21.9249H112.365V32.6073Z" fill="white"/>
<path opacity="0.5" fill-rule="evenodd" clip-rule="evenodd" d="M29.89 13.4057C29.6428 13.6721 29.5 14.0792 29.5 14.612V33.5109C29.5 34.0437 29.6428 34.4508 29.8986 34.7066L29.9646 34.7641L40.5533 24.1755V23.9389L29.9561 13.3481L29.89 13.4057Z" fill="white"/>
<path opacity="0.2" fill-rule="evenodd" clip-rule="evenodd" d="M44.0766 27.7156L40.5449 24.1839V23.9367L44.0766 20.405L44.1533 20.4519L48.3309 22.8263C49.5266 23.4998 49.5266 24.6124 48.3309 25.2944L44.1533 27.6687L44.0766 27.7156Z" fill="white"/>
<path opacity="0.3" fill-rule="evenodd" clip-rule="evenodd" d="M44.1537 27.669L40.5453 24.0605L29.8906 34.7153C30.2807 35.133 30.935 35.1799 31.6661 34.7728L44.1537 27.669Z" fill="white"/>
<path opacity="0.3" fill-rule="evenodd" clip-rule="evenodd" d="M44.1537 20.452L31.6661 13.3588C30.935 12.941 30.2785 12.9986 29.8906 13.4163L40.5453 24.0604L44.1537 20.452Z" fill="white"/>
</g>
</svg>