<svg xmlns="http://www.w3.org/2000/svg" width="158" height="48" viewBox="0 0 158 48" fill="none">
<mask id="mask0_5994_47454" style="mask-type:alpha" maskUnits="userSpaceOnUse" x="0" y="0" width="158" height="48">
<rect x="0.5" width="157" height="48" rx="16" fill="#FD605B"/>
</mask>
<g mask="url(#mask0_5994_47454)">
<rect x="0.5" width="157" height="48" rx="16" fill="#161616"/>
<path d="M60.3288 15.51L59.8638 14.0536C59.7498 13.6939 59.6532 13.2925 59.5655 12.9504H59.548C59.4624 13.2925 59.3725 13.7027 59.2694 14.0536L58.8132 15.51H60.3288ZM58.6377 16.3237L58.1289 17.9995H57.0146L58.9097 12.0906H60.2849L62.2041 17.9995H61.0482L60.513 16.3237" fill="white"/>
<path d="M63.8163 13.7312L64.5094 15.8938C64.6322 16.2711 64.7177 16.6133 64.7967 16.9642H64.823C64.902 16.6133 64.9985 16.2799 65.1125 15.8938L65.7969 13.7312H66.9264L65.2968 17.9995H64.2374L62.6494 13.7312" fill="white"/>
<path d="M70.1788 15.9115C69.4155 15.9027 68.6873 16.0606 68.6873 16.7098C68.6873 17.131 68.9593 17.324 69.3014 17.324C69.7379 17.324 70.0472 17.0432 70.1503 16.7362C70.1788 16.6572 70.1788 16.5782 70.1788 16.4993V15.9115ZM71.2294 16.973C71.2294 17.3591 71.2469 17.7363 71.2996 17.9973H70.3257L70.249 17.5258H70.2205C69.9682 17.857 69.5208 18.0938 68.9593 18.0938C68.0995 18.0938 67.6191 17.4731 67.6191 16.8239C67.6191 15.7535 68.5732 15.203 70.1503 15.2118V15.1416C70.1503 14.8608 70.0384 14.3959 69.2839 14.3959C68.8628 14.3959 68.4241 14.5275 68.1346 14.7117L67.924 14.0098C68.2399 13.8168 68.7926 13.6348 69.4681 13.6348C70.8346 13.6348 71.2294 14.5011 71.2294 15.4399" fill="white"/>
<path d="M72.7538 13.7312H73.8307V17.9994H72.7538V13.7312ZM73.2868 13.1171C72.9293 13.1171 72.6924 12.8539 72.6924 12.538C72.6924 12.2046 72.9358 11.9502 73.2977 11.9502C73.664 11.9502 73.8921 12.2046 73.9009 12.538C73.9009 12.8539 73.664 13.1171 73.2977 13.1171" fill="white"/>
<path d="M75.3818 17.9996H76.461V11.7661H75.3818V17.9996Z" fill="white"/>
<path d="M80.2813 15.9115C79.518 15.9027 78.7898 16.0606 78.7898 16.7098C78.7898 17.131 79.0618 17.324 79.404 17.324C79.8426 17.324 80.1497 17.0432 80.255 16.7362C80.2813 16.6572 80.2813 16.5782 80.2813 16.4993V15.9115ZM81.3319 16.973C81.3319 17.3591 81.3495 17.7363 81.4021 17.9973H80.4305L80.3515 17.5258H80.3252C80.0708 17.857 79.6233 18.0938 79.0618 18.0938C78.2042 18.0938 77.7217 17.4731 77.7217 16.8239C77.7217 15.7535 78.678 15.203 80.255 15.2118V15.1416C80.255 14.8608 80.1409 14.3959 79.3864 14.3959C78.9653 14.3959 78.5266 14.5275 78.2393 14.7117L78.0287 14.0098C78.3446 13.8168 78.8951 13.6348 79.5707 13.6348C80.9371 13.6348 81.3319 14.5011 81.3319 15.4399" fill="white"/>
<path d="M83.9355 16.2362C83.9355 16.3239 83.9443 16.4116 83.9618 16.4906C84.0759 16.9293 84.4531 17.2451 84.9159 17.2451C85.5915 17.2451 86.0038 16.7099 86.0038 15.8435C86.0038 15.089 85.6441 14.4749 84.9247 14.4749C84.486 14.4749 84.0847 14.7907 83.9706 15.2645C83.9531 15.3435 83.9355 15.44 83.9355 15.5453V16.2362ZM82.8564 11.7661H83.9355V14.317H83.9531C84.2163 13.9046 84.6791 13.6348 85.3195 13.6348C86.3635 13.6348 87.1071 14.5012 87.0983 15.7997C87.0983 17.3328 86.1267 18.0961 85.1616 18.0961C84.6089 18.0961 84.1198 17.8856 83.8127 17.3592H83.7951L83.7425 17.9996H82.8213C82.8388 17.7101 82.8564 17.2363 82.8564 16.8064" fill="white"/>
<path d="M88.3682 17.9996H89.4451V11.7661H88.3682V17.9996Z" fill="white"/>
<path d="M93.643 15.4136C93.6518 15.0188 93.4763 14.3695 92.7591 14.3695C92.0923 14.3695 91.8115 14.9749 91.7677 15.4136H93.643ZM91.7677 16.1659C91.794 16.9379 92.3994 17.2713 93.0837 17.2713C93.5816 17.2713 93.9325 17.1924 94.2659 17.0783L94.4238 17.8131C94.0553 17.9732 93.5465 18.0851 92.9345 18.0851C91.5483 18.0851 90.7324 17.2362 90.7324 15.9312C90.7324 14.7468 91.4518 13.6348 92.8205 13.6348C94.2045 13.6348 94.6607 14.7731 94.6607 15.7119C94.6607 15.9137 94.6432 16.0716 94.6256 16.1659" fill="white"/>
<path d="M100.015 17.3152C100.627 17.3152 101.057 16.7186 101.057 15.8522C101.057 15.1855 100.759 14.4134 100.024 14.4134C99.2609 14.4134 98.9538 15.1591 98.9538 15.8698C98.9538 16.6923 99.3662 17.3152 100.004 17.3152H100.015ZM99.9803 18.096C98.7784 18.096 97.8418 17.2713 97.8418 15.8961C97.8418 14.4924 98.7608 13.6348 100.05 13.6348C101.32 13.6348 102.171 14.5275 102.171 15.8259C102.171 17.3942 101.066 18.096 99.9891 18.096" fill="white"/>
<path d="M103.439 15.0012C103.439 14.5099 103.424 14.0976 103.406 13.7291H104.343L104.395 14.3695H104.422C104.615 14.0361 105.08 13.6348 105.79 13.6348C106.534 13.6348 107.306 14.1151 107.306 15.4662V17.9973H106.227V15.589C106.227 14.9749 105.999 14.5099 105.413 14.5099C104.983 14.5099 104.685 14.817 104.571 15.1416C104.536 15.2293 104.518 15.3609 104.518 15.4838V17.9973H103.439" fill="white"/>
<path d="M112.273 12.6345V13.729H113.298V14.5362H112.273V16.4115C112.273 16.9379 112.414 17.2011 112.824 17.2011C113.017 17.2011 113.122 17.1923 113.245 17.1572L113.263 17.9709C113.105 18.0345 112.815 18.085 112.482 18.085C112.08 18.085 111.756 17.9534 111.554 17.7362C111.317 17.4906 111.212 17.0958 111.212 16.5343V14.5362H110.606V13.729H111.212V12.9328" fill="white"/>
<path d="M114.498 11.7661H115.577V14.3082H115.595C115.726 14.1064 115.911 13.9397 116.13 13.8257C116.349 13.705 116.601 13.6348 116.873 13.6348C117.602 13.6348 118.363 14.1152 118.363 15.4838V17.9996H117.286V15.5979C117.286 14.9838 117.058 14.51 116.461 14.51C116.042 14.51 115.744 14.7907 115.621 15.1154C115.586 15.2119 115.577 15.3259 115.577 15.44V17.9996H114.498" fill="white"/>
<path d="M122.534 15.4136C122.542 15.0188 122.367 14.3695 121.648 14.3695C120.981 14.3695 120.702 14.9749 120.658 15.4136H122.534ZM120.658 16.1659C120.685 16.9379 121.288 17.2713 121.972 17.2713C122.472 17.2713 122.823 17.1924 123.154 17.0783L123.314 17.8131C122.946 17.9732 122.437 18.0851 121.823 18.0851C120.439 18.0851 119.623 17.2362 119.623 15.9312C119.623 14.7468 120.342 13.6348 121.709 13.6348C123.093 13.6348 123.549 14.7731 123.549 15.7119C123.549 15.9137 123.532 16.0716 123.514 16.1659" fill="white"/>
<path d="M45.2273 23.7286C45.1988 20.8048 47.6203 19.3813 47.7321 19.3155C46.3613 17.3152 44.2359 17.0432 43.488 17.0213C41.7048 16.8349 39.9743 18.0917 39.0662 18.0917C38.1384 18.0917 36.7369 17.041 35.2301 17.0718C33.2867 17.1025 31.4707 18.2276 30.4749 19.9714C28.4219 23.5312 29.9529 28.7601 31.9225 31.6378C32.9095 33.0459 34.0588 34.6207 35.5656 34.5637C37.0396 34.5023 37.5901 33.625 39.3689 33.625C41.1324 33.625 41.65 34.5637 43.1875 34.5286C44.7689 34.5023 45.7647 33.1139 46.7144 31.6904C47.855 30.0761 48.3112 28.4859 48.3287 28.4048C48.2914 28.3916 45.258 27.2335 45.2273 23.7286Z" fill="white"/>
<path d="M42.3231 15.1306C43.1149 14.1392 43.661 12.7881 43.5075 11.4194C42.3603 11.4721 40.9259 12.2134 40.099 13.1829C39.3686 14.0383 38.7128 15.4398 38.8839 16.7558C40.1736 16.8524 41.4962 16.1066 42.3231 15.1306Z" fill="white"/>
<path d="M63.0157 29.3105L61.998 26.1674C61.8905 25.8472 61.6887 25.0905 61.3905 23.9017H61.3554C61.2369 24.4127 61.0439 25.1694 60.7829 26.1674L59.7827 29.3105H63.0157ZM66.5339 34.331H64.4787L63.3535 30.7954H59.445L58.3724 34.331H56.3721L60.2499 22.2939H62.6407" fill="white"/>
<path d="M74.5352 29.9554C74.5352 29.1087 74.3444 28.4134 73.9627 27.8651C73.546 27.2948 72.9867 27.0075 72.2848 27.0075C71.8089 27.0075 71.3746 27.1676 70.9908 27.4813C70.6047 27.7993 70.3503 28.2117 70.2297 28.7249C70.1704 28.9618 70.1419 29.157 70.1419 29.3105V30.7581C70.1419 31.3898 70.3349 31.9228 70.721 32.3571C71.1092 32.7936 71.6115 33.0085 72.23 33.0085C72.9582 33.0085 73.5241 32.73 73.9255 32.1685C74.3334 31.6092 74.5352 30.8722 74.5352 29.9554ZM76.5005 29.883C76.5005 31.3591 76.1013 32.5282 75.3029 33.3836C74.5879 34.1469 73.6995 34.5263 72.6424 34.5263C71.4974 34.5263 70.6771 34.114 70.177 33.2936H70.1419V37.8668H68.2118V28.5078C68.2118 27.58 68.1899 26.6281 68.1416 25.6498H69.8371L69.9445 27.0273H69.9818C70.6245 25.9898 71.6005 25.4722 72.9099 25.4722C73.932 25.4722 74.7896 25.8779 75.4718 26.6873C76.1561 27.4988 76.5005 28.5626 76.5005 29.883Z" fill="white"/>
<path d="M84.5164 29.9554C84.5164 29.1087 84.3256 28.4134 83.944 27.8651C83.5272 27.2948 82.9679 27.0075 82.266 27.0075C81.7901 27.0075 81.358 27.1676 80.972 27.4813C80.5837 27.7993 80.3337 28.2117 80.2153 28.7249C80.1538 28.9618 80.1253 29.157 80.1253 29.3105V30.7581C80.1253 31.3898 80.3162 31.9228 80.7022 32.3571C81.0904 32.7936 81.5927 33.0085 82.2134 33.0085C82.9394 33.0085 83.5053 32.73 83.9089 32.1685C84.3124 31.6092 84.5164 30.8722 84.5164 29.9554ZM86.4795 29.883C86.4795 31.3591 86.0825 32.5282 85.2841 33.3836C84.5691 34.1469 83.6829 34.5263 82.6236 34.5263C81.4808 34.5263 80.6605 34.114 80.1582 33.2936H80.1253V37.8668H78.1952V28.5078C78.1952 27.58 78.1711 26.6281 78.125 25.6498H79.8205L79.9279 27.0273H79.9652C80.6057 25.9898 81.5817 25.4722 82.8911 25.4722C83.9154 25.4722 84.7687 25.8779 85.4552 26.6873C86.1395 27.4988 86.4795 28.5626 86.4795 29.883Z" fill="white"/>
<path d="M97.6444 30.9556C97.6444 31.9777 97.289 32.8112 96.574 33.4561C95.7888 34.1579 94.6987 34.5089 93.2972 34.5089C92.0009 34.5089 90.9612 34.2588 90.1738 33.7587L90.6213 32.1532C91.4701 32.6643 92.3979 32.9187 93.4112 32.9187C94.1372 32.9187 94.7031 32.7564 95.1089 32.4296C95.5124 32.1006 95.7142 31.6619 95.7142 31.1136C95.7142 30.6266 95.5497 30.2121 95.2163 29.8787C94.8829 29.5453 94.328 29.2361 93.5538 28.9487C91.446 28.1613 90.3932 27.0098 90.3932 25.4964C90.3932 24.5072 90.7616 23.6957 91.5008 23.064C92.2378 22.4323 93.2204 22.1143 94.4465 22.1143C95.5431 22.1143 96.4534 22.3073 97.1794 22.6867L96.6968 24.2594C96.0191 23.8909 95.2514 23.7044 94.3938 23.7044C93.7139 23.7044 93.1853 23.8711 92.8058 24.2045C92.4856 24.5028 92.3233 24.8669 92.3233 25.2946C92.3233 25.7706 92.5054 26.1632 92.876 26.4724C93.1963 26.7576 93.7797 27.0668 94.6263 27.4024C95.6616 27.8192 96.4227 28.3061 96.9118 28.8654C97.3987 29.4247 97.6444 30.1222 97.6444 30.9556Z" fill="white"/>
<path d="M104.017 27.0973H101.892V31.3107C101.892 32.3833 102.267 32.9185 103.019 32.9185C103.362 32.9185 103.649 32.8899 103.875 32.8307L103.927 34.2937C103.55 34.4385 103.048 34.5086 102.429 34.5086C101.668 34.5086 101.072 34.2761 100.642 33.8133C100.214 33.3484 99.9992 32.5675 99.9992 31.473V27.0973H98.7314V25.6497H99.9992V24.0617L101.892 23.4893V25.6497H104.017" fill="white"/>
<path d="M111.609 29.9817C111.609 29.1811 111.436 28.4968 111.089 27.9221C110.688 27.229 110.109 26.8825 109.359 26.8825C108.585 26.8825 107.995 27.229 107.591 27.9221C107.244 28.4968 107.076 29.1943 107.076 30.019C107.076 30.8196 107.244 31.5039 107.591 32.0763C108.008 32.7694 108.591 33.116 109.344 33.116C110.078 33.116 110.657 32.7651 111.074 32.0588C111.432 31.4754 111.609 30.7823 111.609 29.9817ZM113.61 29.9203C113.61 31.2538 113.23 32.3483 112.467 33.2059C111.668 34.0876 110.609 34.5263 109.289 34.5263C108.012 34.5263 106.999 34.103 106.242 33.2586C105.488 32.4141 105.11 31.3481 105.11 30.0628C105.11 28.7161 105.499 27.6151 106.279 26.7597C107.058 25.8999 108.109 25.4722 109.429 25.4722C110.703 25.4722 111.73 25.8955 112.502 26.7399C113.241 27.5646 113.61 28.6218 113.61 29.9203Z" fill="white"/>
<path d="M119.878 27.3475C119.687 27.3124 119.485 27.2948 119.27 27.2948C118.592 27.2948 118.066 27.5515 117.698 28.0625C117.377 28.5165 117.217 29.0868 117.217 29.7755V34.3311H115.289L115.305 28.3849C115.305 27.3826 115.28 26.4723 115.234 25.6498H116.914L116.985 27.3124H117.035C117.239 26.7421 117.562 26.2815 118 25.9372C118.43 25.6279 118.895 25.4722 119.395 25.4722C119.573 25.4722 119.735 25.4853 119.878 25.5073" fill="white"/>
<path d="M126.662 29.0804C126.675 28.5102 126.55 28.0145 126.289 27.5977C125.956 27.0626 125.44 26.7928 124.751 26.7928C124.122 26.7928 123.609 27.056 123.216 27.5802C122.896 27.9969 122.703 28.497 122.648 29.0804H126.662ZM128.5 29.5805C128.5 29.9271 128.478 30.2166 128.432 30.4557H122.648C122.668 31.3133 122.949 31.9691 123.486 32.4209C123.973 32.8267 124.605 33.0263 125.379 33.0263C126.234 33.0263 127.015 32.8903 127.719 32.6161L128.022 33.9563C127.199 34.3116 126.23 34.4936 125.109 34.4936C123.764 34.4936 122.707 34.0966 121.94 33.3026C121.174 32.513 120.788 31.4493 120.788 30.1157C120.788 28.8063 121.143 27.7162 121.861 26.8476C122.609 25.9176 123.622 25.4548 124.894 25.4548C126.144 25.4548 127.094 25.9176 127.737 26.8476C128.248 27.5846 128.5 28.497 128.5 29.5805Z" fill="white"/>
</g>
</svg>