<svg xmlns="http://www.w3.org/2000/svg" width="28" height="24" viewBox="0 0 28 24" fill="none">
<path fill-rule="evenodd" clip-rule="evenodd" d="M21.2537 4.31521C21.307 4.40844 21.4003 4.47503 21.5203 4.47503C24.7203 4.47503 27.3337 7.08546 27.3337 10.2819V18.1931C27.3337 21.3896 24.7203 24 21.5203 24H6.48033C3.26699 24 0.666992 21.3896 0.666992 18.1931V10.2819C0.666992 7.08546 3.26699 4.47503 6.48033 4.47503C6.58699 4.47503 6.69366 4.42175 6.73366 4.31521L6.81366 4.15538C6.85962 4.05863 6.9068 3.95926 6.9547 3.85838C7.29579 3.13992 7.67316 2.34506 7.90699 1.87791C8.52033 0.679245 9.56033 0.0133185 10.8537 0H17.1337C18.427 0.0133185 19.4803 0.679245 20.0937 1.87791C20.3037 2.29744 20.6236 2.97322 20.932 3.62455C20.9956 3.75896 21.0587 3.89233 21.1203 4.0222L21.2537 4.31521ZM20.2803 9.42952C20.2803 10.0954 20.8137 10.6282 21.4803 10.6282C22.147 10.6282 22.6937 10.0954 22.6937 9.42952C22.6937 8.7636 22.147 8.21754 21.4803 8.21754C20.8137 8.21754 20.2803 8.7636 20.2803 9.42952ZM11.6937 11.4939C12.3203 10.8679 13.1337 10.535 14.0003 10.535C14.867 10.535 15.6803 10.8679 16.2937 11.4806C16.907 12.0932 17.2403 12.9057 17.2403 13.7714C17.227 15.556 15.787 17.0078 14.0003 17.0078C13.1337 17.0078 12.3203 16.6748 11.707 16.0622C11.0937 15.4495 10.7603 14.6371 10.7603 13.7714V13.758C10.747 12.919 11.0803 12.1065 11.6937 11.4939ZM17.6937 17.4739C16.747 18.4195 15.4403 19.0056 14.0003 19.0056C12.6003 19.0056 11.2937 18.4595 10.2937 17.4739C9.30699 16.475 8.76033 15.1698 8.76033 13.7714C8.74699 12.3862 9.29366 11.081 10.2803 10.0821C11.2803 9.08324 12.6003 8.53718 14.0003 8.53718C15.4003 8.53718 16.7203 9.08324 17.707 10.0688C18.6937 11.0677 19.2403 12.3862 19.2403 13.7714C19.227 15.2231 18.6403 16.5283 17.6937 17.4739Z" fill="white"/>
</svg>