<svg xmlns="http://www.w3.org/2000/svg" width="24" height="24" viewBox="0 0 24 24" fill="none">
<circle cx="12" cy="12" r="12" fill="#8FB69F"/>
<path d="M10.88 8.86293L14.415 12.3984L10.8285 15.9854C10.6625 16.1514 10.4434 16.2537 10.2095 16.2744L10.1215 16.2779H7.505C7.38059 16.2779 7.26055 16.232 7.16791 16.149C7.07527 16.0659 7.01655 15.9516 7.003 15.8279L7 15.7729V13.1564C7.00006 12.9217 7.08272 12.6944 7.2335 12.5144L7.2935 12.4494L10.88 8.86293ZM12.45 7.29293C12.627 7.11596 12.8638 7.01177 13.1139 7.00094C13.3639 6.99011 13.6089 7.07342 13.8005 7.23443L13.864 7.29293L15.9855 9.41443C16.1623 9.59136 16.2664 9.82814 16.2773 10.0781C16.2881 10.328 16.2049 10.5729 16.044 10.7644L15.9855 10.8284L15.1225 11.6914L11.5875 8.15593L12.45 7.29293Z" fill="white"/>
</svg>