<svg xmlns="http://www.w3.org/2000/svg" width="36" height="37" viewBox="0 0 36 37" fill="none">
<path d="M33 24.785C33 30.245 29.745 33.5 24.285 33.5H22.5C21.675 33.5 21 32.825 21 32V23.345C21 22.94 21.33 22.595 21.735 22.595L24.375 22.55C24.585 22.535 24.765 22.385 24.81 22.175L25.335 19.31C25.38 19.04 25.17 18.785 24.885 18.785L21.69 18.83C21.27 18.83 20.94 18.5 20.925 18.095L20.865 14.42C20.865 14.18 21.06 13.97 21.315 13.97L24.915 13.91C25.17 13.91 25.365 13.715 25.365 13.46L25.305 9.85999C25.305 9.60499 25.11 9.41 24.855 9.41L20.805 9.47002C18.315 9.51502 16.335 11.555 16.38 14.045L16.455 18.17C16.47 18.59 16.14 18.92 15.72 18.935L13.92 18.965C13.665 18.965 13.47 19.16 13.47 19.415L13.515 22.265C13.515 22.52 13.71 22.715 13.965 22.715L15.765 22.685C16.185 22.685 16.515 23.015 16.53 23.42L16.665 31.97C16.68 32.81 16.005 33.5 15.165 33.5H11.715C6.255 33.5 3 30.245 3 24.77V12.215C3 6.755 6.255 3.5 11.715 3.5H24.285C29.745 3.5 33 6.755 33 12.215V24.785V24.785Z" fill="#302A25"/>
</svg>