<svg xmlns="http://www.w3.org/2000/svg" width="172" height="65" viewBox="0 0 172 65" fill="none">
<rect y="0.978516" width="171.06" height="63.4363" rx="24" fill="#8FB69F"/>
<path d="M43.1377 32.1218L32.0718 43.6907C32.4311 44.9122 33.5808 45.8464 34.9461 45.8464C35.5209 45.8464 36.0239 45.7027 36.4551 45.4152L48.9581 38.3015L43.1377 32.1218Z" fill="white" fill-opacity="0.8"/>
<path d="M54.3473 30.1098L48.9581 27.02L42.9222 32.3374L49.03 38.3015L54.4192 35.2835C55.3533 34.7805 56 33.7745 56 32.6967C55.9282 31.6188 55.2815 30.6128 54.3473 30.1098Z" fill="white" fill-opacity="0.6"/>
<path d="M32.0719 21.7026C32 21.9182 32 22.2056 32 22.4931V42.9721C32 43.2595 32 43.4751 32.0719 43.7625L43.5689 32.4811L32.0719 21.7026Z" fill="white"/>
<path d="M43.2096 32.6966L48.9581 27.0199L36.5269 19.978C36.0958 19.6906 35.5209 19.5469 34.9461 19.5469C33.5808 19.5469 32.3593 20.481 32.0718 21.7026L43.2096 32.6966Z" fill="white" fill-opacity="0.8"/>
<path fill-rule="evenodd" clip-rule="evenodd" d="M96.257 25.4155C95.667 26.0312 94.934 26.3375 94.057 26.3375C93.18 26.3375 92.447 26.0302 91.858 25.4155C91.268 24.8008 90.974 24.0481 90.974 23.1585C90.974 22.2689 91.268 21.5163 91.858 20.9016C92.447 20.2859 93.18 19.9785 94.057 19.9785C94.929 19.9785 95.661 20.2879 96.253 20.9056C96.845 21.5234 97.141 22.274 97.141 23.1585C97.141 24.0491 96.846 24.8018 96.257 25.4155ZM92.427 24.9062C92.871 25.3627 93.414 25.5899 94.057 25.5899C94.7 25.5899 95.243 25.3617 95.687 24.9062C96.131 24.4498 96.354 23.8676 96.354 23.1595C96.354 22.4515 96.131 21.8683 95.687 21.4128C95.244 20.9564 94.7 20.7291 94.057 20.7291C93.414 20.7291 92.871 20.9574 92.427 21.4128C91.984 21.8693 91.761 22.4515 91.761 23.1595C91.761 23.8676 91.984 24.4498 92.427 24.9062Z" fill="white"/>
<path d="M70.066 23.406C70.066 24.256 69.818 24.9326 69.321 25.4378C68.757 26.0383 68.021 26.3385 67.117 26.3385C66.251 26.3385 65.514 26.0342 64.909 25.4256C64.303 24.816 64 24.0613 64 23.1605C64 22.2588 64.303 21.5041 64.909 20.8955C65.514 20.2859 66.251 19.9816 67.117 19.9816C67.547 19.9816 67.958 20.0668 68.348 20.2362C68.739 20.4066 69.052 20.6328 69.286 20.9158L68.759 21.4514C68.362 20.9695 67.815 20.7291 67.116 20.7291C66.484 20.7291 65.938 20.9543 65.477 21.4047C65.017 21.8551 64.787 22.4393 64.787 23.1595C64.787 23.8797 65.017 24.464 65.478 24.9154C65.939 25.3657 66.485 25.5909 67.117 25.5909C67.787 25.5909 68.346 25.3647 68.793 24.9113C69.083 24.6161 69.251 24.2053 69.296 23.6789H67.117V22.9465H70.024C70.053 23.1058 70.066 23.2589 70.066 23.406Z" fill="white"/>
<path d="M74.676 20.864H71.944V22.7934H74.408V23.5247H71.944V25.454H74.676V26.2026H71.173V20.1165H74.676V20.864Z" fill="white"/>
<path d="M77.155 26.2026H77.926V20.864H79.602V20.1165H75.479V20.864H77.155V26.2026Z" fill="white"/>
<path d="M82.586 26.2026V20.1165H83.357V26.2026H82.586Z" fill="white"/>
<path d="M86.004 26.2026H86.775V20.864H88.451V20.1165H84.328V20.864H86.004V26.2026Z" fill="white"/>
<path d="M98.223 20.1165V26.2026H98.992V22.4109L98.959 21.2383H98.992L102.043 26.2026H102.848V20.1165H102.077V23.6789L102.11 24.8515H102.077L99.161 20.1165H98.223Z" fill="white"/>
<path fill-rule="evenodd" clip-rule="evenodd" d="M96.257 25.4155C95.667 26.0312 94.934 26.3375 94.057 26.3375C93.18 26.3375 92.447 26.0302 91.858 25.4155C91.268 24.8008 90.974 24.0481 90.974 23.1585C90.974 22.2689 91.268 21.5163 91.858 20.9016C92.447 20.2859 93.18 19.9785 94.057 19.9785C94.929 19.9785 95.661 20.2879 96.253 20.9056C96.845 21.5234 97.141 22.274 97.141 23.1585C97.141 24.0491 96.846 24.8018 96.257 25.4155ZM92.427 24.9062C92.871 25.3627 93.414 25.5899 94.057 25.5899C94.7 25.5899 95.243 25.3617 95.687 24.9062C96.131 24.4498 96.354 23.8676 96.354 23.1595C96.354 22.4515 96.131 21.8683 95.687 21.4128C95.244 20.9564 94.7 20.7291 94.057 20.7291C93.414 20.7291 92.871 20.9574 92.427 21.4128C91.984 21.8693 91.761 22.4515 91.761 23.1595C91.761 23.8676 91.984 24.4498 92.427 24.9062Z" stroke="white" stroke-width="0.2" stroke-miterlimit="10"/>
<path d="M70.066 23.406C70.066 24.256 69.818 24.9326 69.321 25.4378C68.757 26.0383 68.021 26.3385 67.117 26.3385C66.251 26.3385 65.514 26.0342 64.909 25.4256C64.303 24.816 64 24.0613 64 23.1605C64 22.2588 64.303 21.5041 64.909 20.8955C65.514 20.2859 66.251 19.9816 67.117 19.9816C67.547 19.9816 67.958 20.0668 68.348 20.2362C68.739 20.4066 69.052 20.6328 69.286 20.9158L68.759 21.4514C68.362 20.9695 67.815 20.7291 67.116 20.7291C66.484 20.7291 65.938 20.9543 65.477 21.4047C65.017 21.8551 64.787 22.4393 64.787 23.1595C64.787 23.8797 65.017 24.464 65.478 24.9154C65.939 25.3657 66.485 25.5909 67.117 25.5909C67.787 25.5909 68.346 25.3647 68.793 24.9113C69.083 24.6161 69.251 24.2053 69.296 23.6789H67.117V22.9465H70.024C70.053 23.1058 70.066 23.2589 70.066 23.406Z" stroke="white" stroke-width="0.2" stroke-miterlimit="10"/>
<path d="M74.676 20.864H71.944V22.7934H74.408V23.5247H71.944V25.454H74.676V26.2026H71.173V20.1165H74.676V20.864Z" stroke="white" stroke-width="0.2" stroke-miterlimit="10"/>
<path d="M77.155 26.2026H77.926V20.864H79.602V20.1165H75.479V20.864H77.155V26.2026Z" stroke="white" stroke-width="0.2" stroke-miterlimit="10"/>
<path d="M82.586 26.2026V20.1165H83.357V26.2026H82.586Z" stroke="white" stroke-width="0.2" stroke-miterlimit="10"/>
<path d="M86.004 26.2026H86.775V20.864H88.451V20.1165H84.328V20.864H86.004V26.2026Z" stroke="white" stroke-width="0.2" stroke-miterlimit="10"/>
<path d="M98.223 20.1165V26.2026H98.992V22.4109L98.959 21.2383H98.992L102.043 26.2026H102.848V20.1165H102.077V23.6789L102.11 24.8515H102.077L99.161 20.1165H98.223Z" stroke="white" stroke-width="0.2" stroke-miterlimit="10"/>
<path d="M87.9885 34.5043C85.9061 34.5043 84.2088 36.0874 84.2088 38.2699C84.2088 40.4382 85.9061 42.0354 87.9885 42.0354C90.0709 42.0354 91.7682 40.4382 91.7682 38.2699C91.7682 36.0874 90.0709 34.5043 87.9885 34.5043ZM87.9885 40.5524C86.8473 40.5524 85.8627 39.6112 85.8627 38.2699C85.8627 36.9144 86.8473 35.9874 87.9885 35.9874C89.1298 35.9874 90.1134 36.9144 90.1134 38.2699C90.1134 39.6103 89.1298 40.5524 87.9885 40.5524ZM79.7421 34.5043C77.6597 34.5043 75.9624 36.0874 75.9624 38.2699C75.9624 40.4382 77.6597 42.0354 79.7421 42.0354C81.8245 42.0354 83.5218 40.4382 83.5218 38.2699C83.5227 36.0874 81.8245 34.5043 79.7421 34.5043ZM79.7421 40.5524C78.6008 40.5524 77.6172 39.6112 77.6172 38.2699C77.6172 36.9144 78.6017 35.9874 79.7421 35.9874C80.8833 35.9874 81.867 36.9144 81.867 38.2699C81.8679 39.6103 80.8833 40.5524 79.7421 40.5524ZM69.9338 35.6598V37.257H73.7569C73.6427 38.1557 73.3434 38.8117 72.8866 39.2686C72.3306 39.8246 71.4602 40.4382 69.9338 40.4382C67.5805 40.4382 65.7407 38.5408 65.7407 36.1875C65.7407 33.8341 67.5805 31.9367 69.9338 31.9367C71.2035 31.9367 72.1305 32.4361 72.8149 33.078L73.942 31.9509C72.9866 31.0381 71.717 30.3386 69.9338 30.3386C66.7102 30.3386 64 32.9629 64 36.1866C64 39.4102 66.7102 42.0345 69.9338 42.0345C71.6736 42.0345 72.9866 41.4643 74.0137 40.3939C75.069 39.3385 75.3975 37.8546 75.3975 36.6567C75.3975 36.2857 75.3692 35.9431 75.3116 35.658H69.9338V35.6598ZM110.049 36.9002C109.735 36.0582 108.779 34.5035 106.825 34.5035C104.885 34.5035 103.274 36.0299 103.274 38.269C103.274 40.3797 104.871 42.0345 107.011 42.0345C108.737 42.0345 109.735 40.9791 110.149 40.3656L108.865 39.5094C108.437 40.1371 107.852 40.5506 107.011 40.5506C106.169 40.5506 105.57 40.1655 105.185 39.4094L110.22 37.3269L110.049 36.9002ZM104.913 38.1557C104.871 36.701 106.041 35.959 106.882 35.959C107.538 35.959 108.094 36.2866 108.28 36.7576L104.913 38.1557ZM100.819 41.807H102.474V30.7388H100.819V41.807ZM98.1093 35.3455H98.0527C97.6817 34.9036 96.969 34.5035 96.0703 34.5035C94.1871 34.5035 92.4615 36.1582 92.4615 38.2832C92.4615 40.3939 94.1871 42.0345 96.0703 42.0345C96.969 42.0345 97.6817 41.6352 98.0527 41.1783H98.1093V41.7202C98.1093 43.1607 97.339 43.931 96.0977 43.931C95.0849 43.931 94.4571 43.2032 94.2004 42.5905L92.7599 43.1899C93.1733 44.1886 94.2721 45.4149 96.0977 45.4149C98.0376 45.4149 99.6782 44.2736 99.6782 41.4927V34.7319H98.1093V35.3455ZM96.2128 40.5524C95.0716 40.5524 94.1163 39.5971 94.1163 38.284C94.1163 36.9577 95.0716 35.9874 96.2128 35.9874C97.3399 35.9874 98.2235 36.9568 98.2235 38.284C98.2235 39.5962 97.3399 40.5524 96.2128 40.5524ZM117.799 30.7388H113.841V41.807H115.492V37.6138H117.798C119.629 37.6138 121.429 36.2884 121.429 34.1768C121.429 32.0651 119.63 30.7388 117.799 30.7388ZM117.842 36.0732H115.492V32.2794H117.842C119.077 32.2794 119.778 33.302 119.778 34.1768C119.778 35.0338 119.077 36.0732 117.842 36.0732ZM128.052 34.484C126.856 34.484 125.617 35.0108 125.105 36.1786L126.572 36.7913C126.885 36.1786 127.469 35.9794 128.081 35.9794C128.936 35.9794 129.804 36.492 129.818 37.4031V37.5173C129.519 37.3464 128.878 37.0897 128.095 37.0897C126.515 37.0897 124.905 37.9582 124.905 39.582C124.905 41.0632 126.202 42.0168 127.654 42.0168C128.765 42.0168 129.377 41.5183 129.761 40.9349H129.817V41.7893H131.412V37.5456C131.412 35.5801 129.946 34.484 128.052 34.484ZM127.852 40.5497C127.311 40.5497 126.556 40.2788 126.556 39.6103C126.556 38.7559 127.496 38.4284 128.307 38.4284C129.033 38.4284 129.375 38.5851 129.817 38.7984C129.689 39.8237 128.806 40.5497 127.852 40.5497ZM137.222 34.7257L135.328 39.5245H135.271L133.307 34.7257H131.527L134.475 41.4325L132.794 45.1635H134.517L139.06 34.7257H137.222ZM122.341 41.807H123.993V30.7388H122.341V41.807Z" fill="white"/>
</svg>