<svg xmlns="http://www.w3.org/2000/svg" width="174" height="64" viewBox="0 0 174 64" fill="none">
<rect width="173.06" height="63.9785" rx="24" fill="#161616"/>
<path d="M52.0454 32.9274C52.06 31.7967 52.3603 30.688 52.9185 29.7046C53.4766 28.7212 54.2745 27.8949 55.2378 27.3027C54.6258 26.4287 53.8185 25.7095 52.8799 25.2021C51.9414 24.6947 50.8975 24.4131 49.8311 24.3798C47.5563 24.141 45.3509 25.741 44.1917 25.741C43.0101 25.741 41.2253 24.4035 39.3034 24.443C38.0603 24.4832 36.8487 24.8447 35.7868 25.4923C34.7249 26.1399 33.8489 27.0515 33.2441 28.1384C30.6242 32.6743 32.5784 39.3407 35.0881 43.0073C36.3437 44.8027 37.8112 46.8082 39.7314 46.7371C41.6104 46.6592 42.3121 45.5389 44.5802 45.5389C46.8273 45.5389 47.4857 46.7371 49.4448 46.6919C51.4611 46.6592 52.7314 44.8885 53.943 43.0761C54.8452 41.7968 55.5394 40.3829 56 38.8868C54.8286 38.3913 53.829 37.562 53.1257 36.5023C52.4225 35.4425 52.0468 34.1992 52.0454 32.9274Z" fill="white"/>
<path d="M48.345 21.9684C49.4443 20.6487 49.9859 18.9524 49.8548 17.2397C48.1752 17.4162 46.6238 18.2189 45.5096 19.488C44.9648 20.1079 44.5476 20.8292 44.2817 21.6106C44.0159 22.3919 43.9067 23.2179 43.9602 24.0415C44.8003 24.0502 45.6314 23.8681 46.3909 23.509C47.1504 23.1499 47.8186 22.6231 48.345 21.9684Z" fill="white"/>
<path d="M68.1553 19.2939C68.5449 19.2659 68.9358 19.3248 69.3 19.4662C69.6641 19.6076 69.9923 19.8281 70.2608 20.1118C70.5294 20.3954 70.7317 20.7351 70.8531 21.1063C70.9745 21.4776 71.012 21.8712 70.9629 22.2587C70.9629 24.165 69.9326 25.2607 68.1553 25.2607H66V19.2939H68.1553ZM66.9268 24.4169H68.0518C68.3302 24.4335 68.6088 24.3879 68.8673 24.2833C69.1258 24.1786 69.3578 24.0177 69.5463 23.8121C69.7348 23.6066 69.8751 23.3616 69.9569 23.0949C70.0388 22.8283 70.0602 22.5468 70.0195 22.2709C70.0572 21.996 70.0337 21.7163 69.9506 21.4516C69.8674 21.1869 69.7268 20.9439 69.5387 20.74C69.3507 20.5361 69.1198 20.3763 68.8628 20.272C68.6057 20.1678 68.3287 20.1217 68.0518 20.1371H66.9268V24.4169Z" fill="white"/>
<path d="M72.0098 23.0073C71.9815 22.7114 72.0153 22.4128 72.1092 22.1307C72.203 21.8487 72.3548 21.5893 72.5547 21.3693C72.7546 21.1493 72.9983 20.9736 73.2702 20.8533C73.5421 20.733 73.836 20.6709 74.1333 20.6709C74.4306 20.6709 74.7246 20.733 74.9964 20.8533C75.2683 20.9736 75.512 21.1493 75.7119 21.3693C75.9119 21.5893 76.0636 21.8487 76.1575 22.1307C76.2513 22.4128 76.2851 22.7114 76.2568 23.0073C76.2857 23.3035 76.2522 23.6025 76.1586 23.885C76.0651 24.1675 75.9134 24.4273 75.7134 24.6478C75.5134 24.8682 75.2695 25.0443 74.9974 25.1648C74.7253 25.2854 74.4309 25.3476 74.1333 25.3476C73.8357 25.3476 73.5414 25.2854 73.2692 25.1648C72.9971 25.0443 72.7532 24.8682 72.5532 24.6478C72.3532 24.4273 72.2016 24.1675 72.108 23.885C72.0144 23.6025 71.9809 23.3035 72.0098 23.0073ZM75.3428 23.0073C75.3428 22.0312 74.9043 21.4604 74.1348 21.4604C73.3623 21.4604 72.9278 22.0312 72.9278 23.0073C72.9278 23.9912 73.3623 24.5576 74.1348 24.5576C74.9043 24.5576 75.3428 23.9873 75.3428 23.0073H75.3428Z" fill="white"/>
<path d="M81.9023 25.2607H80.9805L80.0498 21.9443H79.9795L79.0527 25.2607H78.1396L76.8984 20.7578H77.7998L78.6064 24.1938H78.6729L79.5986 20.7578H80.4512L81.377 24.1938H81.4473L82.25 20.7578H83.1387L81.9023 25.2607Z" fill="white"/>
<path d="M84.1826 20.7579H85.0381V21.4732H85.1045C85.2172 21.2163 85.4072 21.0009 85.648 20.8571C85.8889 20.7133 86.1686 20.6482 86.4482 20.6709C86.6673 20.6545 86.8873 20.6875 87.0919 20.7676C87.2965 20.8477 87.4805 20.9728 87.6302 21.1336C87.7799 21.2945 87.8914 21.4869 87.9566 21.6968C88.0218 21.9066 88.039 22.1284 88.0068 22.3457V25.2607H87.1182V22.5689C87.1182 21.8453 86.8037 21.4854 86.1465 21.4854C85.9977 21.4785 85.8492 21.5038 85.7112 21.5596C85.5731 21.6154 85.4488 21.7005 85.3466 21.8089C85.2445 21.9172 85.167 22.0464 85.1195 22.1876C85.072 22.3287 85.0555 22.4784 85.0713 22.6265V25.2608H84.1826L84.1826 20.7579Z" fill="white"/>
<path d="M89.4229 19H90.3115V25.2607H89.4229V19Z" fill="white"/>
<path d="M91.5469 23.0074C91.5186 22.7114 91.5524 22.4128 91.6463 22.1308C91.7402 21.8487 91.8919 21.5893 92.0919 21.3693C92.2919 21.1494 92.5356 20.9736 92.8075 20.8533C93.0793 20.733 93.3734 20.6709 93.6706 20.6709C93.9679 20.6709 94.2619 20.733 94.5338 20.8533C94.8057 20.9736 95.0494 21.1494 95.2494 21.3693C95.4493 21.5893 95.6011 21.8487 95.695 22.1308C95.7888 22.4128 95.8227 22.7114 95.7944 23.0074C95.8232 23.3036 95.7897 23.6026 95.6961 23.8851C95.6025 24.1676 95.4508 24.4274 95.2508 24.6478C95.0508 24.8683 94.8069 25.0444 94.5347 25.1649C94.2626 25.2854 93.9683 25.3477 93.6706 25.3477C93.373 25.3477 93.0787 25.2854 92.8065 25.1649C92.5344 25.0444 92.2905 24.8683 92.0905 24.6478C91.8905 24.4274 91.7388 24.1676 91.6451 23.8851C91.5515 23.6026 91.518 23.3036 91.5469 23.0074ZM94.8799 23.0074C94.8799 22.0313 94.4414 21.4605 93.6719 21.4605C92.8994 21.4605 92.4649 22.0313 92.4649 23.0074C92.4649 23.9913 92.8994 24.5577 93.6719 24.5577C94.4414 24.5577 94.8799 23.9873 94.8799 23.0074H94.8799Z" fill="white"/>
<path d="M96.73 23.9873C96.73 23.1767 97.3335 22.7095 98.4048 22.6431L99.6245 22.5727V22.1841C99.6245 21.7085 99.3101 21.4399 98.7026 21.4399C98.2065 21.4399 97.8628 21.6221 97.7642 21.9404H96.9038C96.9946 21.167 97.7222 20.6709 98.7437 20.6709C99.8726 20.6709 100.509 21.2329 100.509 22.1841V25.2607H99.6538V24.6279H99.5835C99.4408 24.8549 99.2404 25.04 99.0028 25.1642C98.7651 25.2884 98.4988 25.3473 98.231 25.3349C98.0419 25.3546 97.8509 25.3344 97.6701 25.2757C97.4893 25.217 97.3229 25.1211 97.1815 24.9941C97.0401 24.8672 96.9268 24.712 96.8491 24.5386C96.7713 24.3651 96.7307 24.1774 96.73 23.9873ZM99.6245 23.6025V23.2261L98.5249 23.2964C97.9048 23.3379 97.6235 23.5488 97.6235 23.9458C97.6235 24.3511 97.9751 24.5869 98.4585 24.5869C98.6002 24.6012 98.7433 24.5869 98.8793 24.5448C99.0153 24.5028 99.1414 24.4337 99.2502 24.3419C99.359 24.2501 99.4482 24.1373 99.5125 24.0102C99.5768 23.8832 99.6149 23.7446 99.6245 23.6025Z" fill="white"/>
<path d="M101.677 23.0073C101.677 21.5845 102.409 20.6831 103.546 20.6831C103.828 20.6702 104.107 20.7376 104.352 20.8775C104.596 21.0173 104.796 21.224 104.927 21.4731H104.994V19H105.882V25.2607H105.031V24.5493H104.96C104.819 24.7968 104.612 25.0008 104.363 25.1393C104.114 25.2778 103.831 25.3455 103.546 25.3349C102.401 25.335 101.677 24.4336 101.677 23.0073ZM102.595 23.0073C102.595 23.9624 103.045 24.5371 103.798 24.5371C104.547 24.5371 105.01 23.9541 105.01 23.0112C105.01 22.0728 104.543 21.4815 103.798 21.4815C103.05 21.4815 102.595 22.0601 102.595 23.0073H102.595Z" fill="white"/>
<path d="M109.559 23.0073C109.531 22.7114 109.565 22.4128 109.658 22.1307C109.752 21.8487 109.904 21.5893 110.104 21.3693C110.304 21.1493 110.548 20.9736 110.82 20.8533C111.091 20.733 111.385 20.6709 111.683 20.6709C111.98 20.6709 112.274 20.733 112.546 20.8533C112.818 20.9736 113.061 21.1493 113.261 21.3693C113.461 21.5893 113.613 21.8487 113.707 22.1307C113.801 22.4128 113.834 22.7114 113.806 23.0073C113.835 23.3035 113.802 23.6025 113.708 23.885C113.614 24.1675 113.463 24.4273 113.263 24.6478C113.063 24.8682 112.819 25.0443 112.547 25.1648C112.275 25.2854 111.98 25.3476 111.683 25.3476C111.385 25.3476 111.091 25.2854 110.819 25.1648C110.546 25.0443 110.303 24.8682 110.103 24.6478C109.903 24.4273 109.751 24.1675 109.657 23.885C109.564 23.6025 109.53 23.3035 109.559 23.0073ZM112.892 23.0073C112.892 22.0312 112.454 21.4604 111.684 21.4604C110.912 21.4604 110.477 22.0312 110.477 23.0073C110.477 23.9912 110.912 24.5576 111.684 24.5576C112.454 24.5576 112.892 23.9873 112.892 23.0073Z" fill="white"/>
<path d="M114.999 20.7579H115.854V21.4732H115.92C116.033 21.2163 116.223 21.0009 116.464 20.8571C116.705 20.7133 116.985 20.6482 117.264 20.6709C117.483 20.6545 117.703 20.6875 117.908 20.7676C118.112 20.8477 118.296 20.9728 118.446 21.1336C118.596 21.2945 118.707 21.4869 118.773 21.6968C118.838 21.9066 118.855 22.1284 118.823 22.3457V25.2607H117.934V22.5689C117.934 21.8453 117.62 21.4854 116.962 21.4854C116.814 21.4785 116.665 21.5038 116.527 21.5596C116.389 21.6154 116.265 21.7005 116.163 21.8089C116.06 21.9172 115.983 22.0464 115.935 22.1876C115.888 22.3287 115.871 22.4784 115.887 22.6265V25.2608H114.999V20.7579Z" fill="white"/>
<path d="M123.844 19.6367V20.7783H124.82V21.5269H123.844V23.8423C123.844 24.314 124.039 24.5205 124.481 24.5205C124.594 24.5201 124.707 24.5133 124.82 24.5V25.2402C124.66 25.2688 124.499 25.284 124.336 25.2856C123.348 25.2856 122.955 24.938 122.955 24.0698V21.5268H122.24V20.7783H122.955V19.6367H123.844Z" fill="white"/>
<path d="M126.034 19H126.915V21.4815H126.985C127.103 21.2221 127.298 21.0055 127.544 20.8612C127.79 20.7168 128.074 20.6518 128.358 20.6748C128.576 20.6629 128.794 20.6993 128.996 20.7814C129.198 20.8634 129.38 20.9891 129.528 21.1494C129.676 21.3098 129.787 21.5008 129.853 21.709C129.919 21.9171 129.938 22.1372 129.909 22.3535V25.2607H129.019V22.5728C129.019 21.8535 128.684 21.4893 128.056 21.4893C127.903 21.4767 127.75 21.4977 127.606 21.5508C127.462 21.6038 127.332 21.6877 127.224 21.7964C127.116 21.9051 127.033 22.0362 126.981 22.1803C126.929 22.3244 126.909 22.4782 126.922 22.6308V25.2607H126.034L126.034 19Z" fill="white"/>
<path d="M135.09 24.045C134.97 24.4565 134.708 24.8125 134.351 25.0507C133.995 25.2888 133.566 25.394 133.139 25.3477C132.843 25.3556 132.548 25.2987 132.275 25.1812C132.003 25.0637 131.759 24.8883 131.561 24.6671C131.363 24.446 131.216 24.1844 131.129 23.9006C131.042 23.6168 131.019 23.3175 131.059 23.0235C131.02 22.7286 131.044 22.4287 131.13 22.144C131.217 21.8594 131.364 21.5966 131.56 21.3735C131.757 21.1504 132 20.9723 132.271 20.8511C132.543 20.7299 132.838 20.6684 133.135 20.671C134.388 20.671 135.144 21.527 135.144 22.941V23.2511H131.964V23.3009C131.95 23.4661 131.971 23.6324 132.025 23.7892C132.079 23.9459 132.166 24.0896 132.279 24.2111C132.392 24.3326 132.529 24.4291 132.681 24.4945C132.833 24.5599 132.998 24.5927 133.164 24.5909C133.376 24.6164 133.592 24.5781 133.782 24.4809C133.973 24.3837 134.131 24.2319 134.235 24.045L135.09 24.045ZM131.964 22.5938H134.239C134.25 22.4427 134.229 22.2909 134.178 22.1482C134.127 22.0055 134.047 21.875 133.943 21.7651C133.838 21.6553 133.712 21.5685 133.572 21.5103C133.432 21.4521 133.282 21.4239 133.13 21.4273C132.977 21.4254 132.824 21.4543 132.682 21.5122C132.539 21.5701 132.41 21.656 132.301 21.7647C132.193 21.8734 132.107 22.0028 132.049 22.1452C131.991 22.2876 131.962 22.4401 131.964 22.5938H131.964Z" fill="white"/>
<path d="M73.875 38.627H69.1416L68.0049 41.9834H66L70.4834 29.5654H72.5664L77.0498 41.9834H75.0107L73.875 38.627ZM69.6318 37.0781H73.3838L71.5342 31.6309H71.4824L69.6318 37.0781Z" fill="white"/>
<path d="M86.7324 37.457C86.7324 40.2705 85.2266 42.0781 82.9541 42.0781C82.3784 42.1082 81.8059 41.9756 81.3022 41.6955C80.7984 41.4153 80.3836 40.999 80.1055 40.4941H80.0625V44.9785H78.2041V32.9297H80.0029V34.4355H80.0371C80.328 33.933 80.7498 33.5189 81.2574 33.237C81.765 32.9552 82.3396 32.8162 82.9199 32.8349C85.2178 32.8349 86.7324 34.6513 86.7324 37.457ZM84.8223 37.457C84.8223 35.624 83.875 34.4189 82.4297 34.4189C81.0098 34.4189 80.0547 35.6494 80.0547 37.457C80.0547 39.2812 81.0098 40.5029 82.4297 40.5029C83.875 40.5029 84.8222 39.3066 84.8222 37.457H84.8223Z" fill="white"/>
<path d="M96.6978 37.457C96.6978 40.2705 95.1914 42.0781 92.9189 42.0781C92.3433 42.1082 91.7708 41.9756 91.267 41.6955C90.7632 41.4153 90.3485 40.999 90.0703 40.4941H90.0273V44.9785H88.1689V32.9297H89.9677V34.4355H90.0019C90.2929 33.933 90.7146 33.5189 91.2222 33.237C91.7299 32.9552 92.3044 32.8162 92.8847 32.8349C95.1826 32.8349 96.6978 34.6513 96.6978 37.457ZM94.7871 37.457C94.7871 35.624 93.8398 34.4189 92.3945 34.4189C90.9746 34.4189 90.0195 35.6494 90.0195 37.457C90.0195 39.2812 90.9746 40.5029 92.3945 40.5029C93.8398 40.5029 94.7871 39.3066 94.7871 37.457Z" fill="white"/>
<path d="M103.283 38.5235C103.42 39.7549 104.617 40.5635 106.251 40.5635C107.818 40.5635 108.945 39.7549 108.945 38.6445C108.945 37.6807 108.265 37.1035 106.656 36.708L105.046 36.3203C102.766 35.7695 101.708 34.7031 101.708 32.9727C101.708 30.8301 103.575 29.3584 106.225 29.3584C108.85 29.3584 110.649 30.8301 110.709 32.9727H108.833C108.721 31.7334 107.697 30.9854 106.2 30.9854C104.703 30.9854 103.678 31.7422 103.678 32.8438C103.678 33.7217 104.333 34.2383 105.933 34.6338L107.301 34.9697C109.849 35.5722 110.907 36.5957 110.907 38.4121C110.907 40.7353 109.057 42.1904 106.114 42.1904C103.36 42.1904 101.5 40.7695 101.38 38.5234L103.283 38.5235Z" fill="white"/>
<path d="M114.919 30.7871V32.9297H116.641V34.4014H114.919V39.3926C114.919 40.168 115.264 40.5293 116.021 40.5293C116.225 40.5257 116.429 40.5114 116.632 40.4863V41.9492C116.292 42.0128 115.946 42.0416 115.6 42.0351C113.767 42.0351 113.052 41.3466 113.052 39.5908V34.4014H111.736V32.9297H113.052V30.7871H114.919Z" fill="white"/>
<path d="M117.637 37.457C117.637 34.6084 119.315 32.8184 121.931 32.8184C124.556 32.8184 126.226 34.6084 126.226 37.457C126.226 40.3135 124.565 42.0957 121.931 42.0957C119.298 42.0957 117.637 40.3135 117.637 37.457ZM124.333 37.457C124.333 35.5029 123.437 34.3496 121.931 34.3496C120.425 34.3496 119.53 35.5117 119.53 37.457C119.53 39.4189 120.425 40.5635 121.931 40.5635C123.437 40.5635 124.333 39.4189 124.333 37.457H124.333Z" fill="white"/>
<path d="M127.758 32.9298H129.531V34.4708H129.574C129.694 33.9895 129.976 33.5642 130.372 33.2663C130.769 32.9684 131.256 32.8161 131.752 32.8351C131.966 32.8343 132.179 32.8576 132.388 32.9044V34.6427C132.118 34.5601 131.836 34.5221 131.553 34.5304C131.283 34.5194 131.014 34.567 130.764 34.6699C130.514 34.7728 130.29 34.9285 130.106 35.1264C129.922 35.3243 129.783 35.5597 129.698 35.8164C129.614 36.073 129.586 36.3449 129.617 36.6134V41.9835H127.758L127.758 32.9298Z" fill="white"/>
<path d="M140.957 39.3242C140.707 40.9678 139.106 42.0957 137.058 42.0957C134.424 42.0957 132.79 40.331 132.79 37.5C132.79 34.6602 134.433 32.8184 136.98 32.8184C139.485 32.8184 141.06 34.5391 141.06 37.2842V37.9209H134.666V38.0332C134.636 38.3664 134.678 38.7021 134.788 39.0179C134.898 39.3337 135.074 39.6225 135.305 39.8651C135.535 40.1076 135.814 40.2984 136.124 40.4247C136.434 40.551 136.767 40.61 137.101 40.5976C137.54 40.6388 137.981 40.5371 138.358 40.3076C138.734 40.0782 139.027 39.7333 139.192 39.3242L140.957 39.3242ZM134.674 36.6221H139.201C139.217 36.3225 139.172 36.0227 139.067 35.7415C138.963 35.4602 138.801 35.2037 138.592 34.9879C138.384 34.7722 138.133 34.6018 137.856 34.4876C137.578 34.3734 137.28 34.3178 136.98 34.3242C136.677 34.3224 136.377 34.3806 136.097 34.4953C135.817 34.61 135.563 34.7791 135.348 34.9927C135.134 35.2064 134.964 35.4603 134.848 35.74C134.733 36.0196 134.674 36.3194 134.674 36.6221V36.6221Z" fill="white"/>
</svg>