<svg xmlns="http://www.w3.org/2000/svg" width="52" height="52" viewBox="0 0 52 52" fill="none">
<rect width="52" height="52" rx="16" fill="white"/>
<rect x="0.5" y="0.5" width="51" height="51" rx="15.5" stroke="#A9A4A1" stroke-opacity="0.4"/>
<g clip-path="url(#clip0_514_20534)">
<path d="M12.2532 27.812L13.9661 29.478L17.6655 25.894L15.967 24.228L15.1897 23.472C14.5707 22.87 14.2396 22.086 14.2396 21.232C14.2396 20.49 14.4987 19.818 14.945 19.286C15.5495 18.544 16.4708 18.068 17.5072 18.068C18.3853 18.068 19.1914 18.404 19.8247 19.006L20.5876 19.72L22.3006 21.4L26.0144 17.816L24.287 16.15L23.5097 15.422C21.9695 13.924 19.8535 13 17.5072 13C12.8002 13 9 16.696 9 21.246C9 22.38 9.23031 23.458 9.66215 24.452C10.094 25.446 10.713 26.328 11.4903 27.07L12.2532 27.812Z" fill="#EA4335"/>
<path d="M20.7303 30.1079L26.0131 24.9979L22.2993 21.3999L17.6643 25.8939L13.9648 29.4779L15.9513 31.4239L17.6643 33.0759L19.4492 31.3399" fill="#FBBC04"/>
<path d="M29.6979 37.584L38.0468 29.478L34.333 25.894L25.9985 33.986L21.3635 29.492L17.6641 33.076L22.2991 37.584L22.2847 37.598L25.9985 41L29.7123 37.584H29.6979Z" fill="#34A853"/>
<path d="M40.5097 27.0701C42.2371 25.3901 43.2303 22.8141 42.9568 20.2101C42.5538 16.2621 39.1854 13.2941 35.0974 13.0281C32.5208 12.8601 30.16 13.7981 28.4903 15.4221L22.3006 21.4001L26 24.9981L32.1897 19.0061C32.9382 18.2921 33.9746 17.9561 35.0398 18.1241C36.4217 18.3341 37.5445 19.4401 37.7316 20.7841C37.8755 21.7921 37.5301 22.7721 36.7959 23.4861L34.3345 25.8941L38.0483 29.4781L40.5097 27.0701Z" fill="#4285F4"/>
</g>
<defs>
<clipPath id="clip0_514_20534">
<rect width="34" height="28" fill="white" transform="translate(9 13)"/>
</clipPath>
</defs>
</svg>