<svg xmlns="http://www.w3.org/2000/svg" width="159" height="55" viewBox="0 0 159 55" fill="none">
<mask id="mask0_1375_24757" style="mask-type:alpha" maskUnits="userSpaceOnUse" x="0" y="0" width="159" height="55">
<rect x="0.400391" width="158" height="54.5611" rx="16" fill="#1E2534"/>
</mask>
<g mask="url(#mask0_1375_24757)">
<rect x="0.900391" y="0.5" width="157" height="53.5611" rx="15.5" stroke="#302A25"/>
<path d="M82.0037 19.5873C80.9747 19.5873 80.1073 19.2273 79.4214 18.5186C78.741 17.8298 78.3612 16.8802 78.3782 15.9108C78.3782 14.8761 78.7297 14.0002 79.4214 13.3057C80.1045 12.5971 80.9719 12.2371 82.0009 12.2371C83.0185 12.2371 83.8859 12.5971 84.5832 13.3057C85.2749 14.0229 85.6263 14.8988 85.6263 15.9108C85.615 16.9482 85.2635 17.8241 84.5832 18.5158C83.9001 19.2301 83.0327 19.5873 82.0037 19.5873ZM51.3869 19.5873C50.3806 19.5873 49.5076 19.233 48.7933 18.5328C48.0846 17.8355 47.7246 16.9539 47.7246 15.9136C47.7246 14.8733 48.0846 13.9917 48.7933 13.2944C49.4934 12.5942 50.3665 12.2399 51.3869 12.2399C51.8858 12.2399 52.3706 12.3391 52.8354 12.5404C53.2918 12.736 53.6631 13.0024 53.9381 13.3284L54.0061 13.4106L53.2379 14.1646L53.1586 14.0711C52.7249 13.5552 52.1438 13.3029 51.3756 13.3029C50.6896 13.3029 50.0915 13.5467 49.5983 14.0286C49.1022 14.5133 48.85 15.1482 48.85 15.9164C48.85 16.6846 49.1022 17.3196 49.5983 17.8043C50.0915 18.2862 50.6896 18.53 51.3756 18.53C52.1069 18.53 52.722 18.2862 53.2011 17.8043C53.4846 17.5208 53.6603 17.124 53.7227 16.6222H51.2594V15.5621H54.78L54.7942 15.6585C54.8197 15.8371 54.8452 16.0213 54.8452 16.1914C54.8452 17.1693 54.5504 17.9602 53.9664 18.5441C53.3031 19.2358 52.4358 19.5873 51.3869 19.5873ZM92.095 19.437H91.0093L87.6843 14.1164L87.7126 15.0745V19.4342H86.627V12.3901H87.8657L87.8997 12.444L91.0263 17.4556L90.998 16.5004V12.3901H92.095V19.437ZM73.8457 19.437H72.7458V13.4503H70.8381V12.3901H75.7505V13.4503H73.8428V19.437H73.8457ZM69.9424 19.437H68.8454V12.3901H69.9424V19.437ZM63.7771 19.437H62.6801V13.4503H60.7724V12.3901H65.6848V13.4503H63.7771V19.437ZM60.0779 19.4257H55.8713V12.3901H60.0779V13.4503H56.9711V15.3835H59.7746V16.4323H56.9711V18.3656H60.0779V19.4257ZM80.2264 17.7901C80.7168 18.2805 81.312 18.5271 82.0037 18.5271C82.7152 18.5271 83.2963 18.2862 83.781 17.7901C84.2629 17.3082 84.5067 16.6761 84.5067 15.9136C84.5067 15.1511 84.2629 14.5161 83.7838 14.0371C83.2934 13.5467 82.6953 13.3001 82.0065 13.3001C81.295 13.3001 80.7139 13.541 80.2321 14.0371C79.7502 14.5189 79.5064 15.1511 79.5064 15.9136C79.5064 16.6761 79.7473 17.3111 80.2264 17.7901Z" fill="#302A25"/>
<path fill-rule="evenodd" clip-rule="evenodd" d="M78.275 29.2758C75.5963 29.2758 73.425 31.3082 73.425 34.1117C73.425 36.8896 75.6105 38.9476 78.275 38.9476C80.9538 38.9476 83.1251 36.901 83.1251 34.1117C83.1251 31.3082 80.9538 29.2758 78.275 29.2758ZM78.275 37.0314C76.8095 37.0314 75.5481 35.8181 75.5481 34.1003C75.5481 32.357 76.8124 31.1693 78.275 31.1693C79.7406 31.1693 81.002 32.357 81.002 34.1003C81.0048 35.8295 79.7406 37.0314 78.275 37.0314ZM67.6933 29.2758C65.0146 29.2758 62.8432 31.3082 62.8432 34.1117C62.8432 36.8896 65.0288 38.9476 67.6933 38.9476C70.3721 38.9476 72.5434 36.901 72.5434 34.1117C72.5434 31.3082 70.3692 29.2758 67.6933 29.2758ZM67.6933 37.0314C66.2278 37.0314 64.9664 35.8181 64.9664 34.1003C64.9664 32.357 66.2306 31.1693 67.6933 31.1693C69.1588 31.1693 70.4202 32.357 70.4202 34.1003C70.4202 35.8295 69.1588 37.0314 67.6933 37.0314ZM55.1018 30.7526V32.7992H60.0143C59.864 33.9473 59.4842 34.7948 58.9031 35.3759C58.1831 36.0959 57.0719 36.8783 55.1132 36.8783C52.0943 36.8783 49.733 34.4405 49.733 31.4216C49.733 28.4027 52.0943 25.9649 55.1132 25.9649C56.7431 25.9649 57.9308 26.6084 58.8124 27.4304L60.2637 25.9791C59.0391 24.8056 57.4092 23.907 55.1245 23.907C50.9831 23.907 47.5078 27.2802 47.5078 31.4103C47.5078 35.5517 50.9803 38.9136 55.1245 38.9136C57.361 38.9136 59.0391 38.1822 60.3658 36.8046C61.7179 35.4525 62.1459 33.5448 62.1459 32.0055C62.1459 31.5265 62.1091 31.0956 62.0325 30.73H55.099C55.1018 30.7271 55.1018 30.7526 55.1018 30.7526ZM106.604 32.3457C106.199 31.26 104.975 29.2645 102.463 29.2645C99.9742 29.2645 97.905 31.2232 97.905 34.1003C97.905 36.8159 99.9516 38.9362 102.704 38.9362C104.915 38.9362 106.202 37.5841 106.732 36.7904L105.091 35.6906C104.547 36.4984 103.79 37.0285 102.715 37.0285C101.63 37.0285 100.87 36.5353 100.365 35.563L106.831 32.8843C106.831 32.8871 106.604 32.3457 106.604 32.3457ZM100.011 33.9614C99.9601 32.0934 101.462 31.1438 102.537 31.1438C103.384 31.1438 104.09 31.5605 104.331 32.1671L100.011 33.9614ZM94.7585 38.6471H96.8816V24.4399H94.7585V38.6471ZM91.2719 30.3501H91.1953C90.7163 29.7804 89.8064 29.2645 88.6442 29.2645C86.2319 29.2645 84.0095 31.3876 84.0095 34.1145C84.0095 36.8301 86.2205 38.9277 88.6442 38.9277C89.7922 38.9277 90.7163 38.409 91.1953 37.8279H91.2719V38.5224C91.2719 40.3677 90.2854 41.3627 88.6952 41.3627C87.3941 41.3627 86.5862 40.4273 86.2574 39.6449L84.412 40.4159C84.9421 41.6915 86.3566 43.2704 88.6924 43.2704C91.1812 43.2704 93.2902 41.8049 93.2902 38.2304V29.5536H91.2832V30.3501C91.2861 30.3501 91.2719 30.3501 91.2719 30.3501ZM88.8341 37.0314C87.3686 37.0314 86.144 35.8068 86.144 34.1145C86.144 32.4081 87.3686 31.1722 88.8341 31.1722C90.2854 31.1722 91.4108 32.4222 91.4108 34.1145C91.425 35.8068 90.2883 37.0314 88.8341 37.0314ZM116.546 24.4399H111.469V38.6471H113.592V33.267H116.548C118.898 33.267 121.209 31.5633 121.209 28.8591C121.209 26.1549 118.907 24.4399 116.546 24.4399ZM116.608 31.2827H113.589V26.4071H116.608C118.198 26.4071 119.097 27.7196 119.097 28.8449C119.097 29.9589 118.187 31.2827 116.608 31.2827ZM129.718 29.2503C128.176 29.2503 126.586 29.9334 125.928 31.4216L127.81 32.204C128.216 31.4216 128.958 31.1552 129.744 31.1552C130.844 31.1552 131.955 31.8128 131.98 32.9863V33.1366C131.6 32.9211 130.767 32.5923 129.769 32.5923C127.737 32.5923 125.676 33.7035 125.676 35.787C125.676 37.6947 127.343 38.9192 129.199 38.9192C130.625 38.9192 131.41 38.2758 131.901 37.5303H131.977V38.6301H134.024V33.1876C134.024 30.6534 132.142 29.2503 129.718 29.2503ZM129.452 37.0314C128.757 37.0314 127.785 36.6912 127.785 35.8181C127.785 34.7183 128.998 34.3016 130.033 34.3016C130.968 34.3016 131.41 34.5029 131.966 34.7807C131.813 36.0562 130.736 37.02 129.452 37.0314ZM141.49 29.5536L139.053 35.7161H138.976L136.45 29.5536H134.166L137.956 38.1681L135.796 42.9558H138.007L143.838 29.5536H141.49ZM122.379 38.6471H124.502V24.4399H122.379V38.6471Z" fill="#302A25"/>
<path fill-rule="evenodd" clip-rule="evenodd" d="M12.6906 13.1107C12.3618 13.465 12.1719 14.0065 12.1719 14.7151V39.8498C12.1719 40.5585 12.3618 41.0999 12.702 41.4401L12.7898 41.5166L26.8723 27.4341V27.1195L12.7785 13.0342L12.6906 13.1107Z" fill="#302A25"/>
<path fill-rule="evenodd" clip-rule="evenodd" d="M31.5584 32.1422L26.8613 27.4453V27.1164L31.5584 22.4194L31.6604 22.4818L37.2163 25.6396C38.8066 26.5353 38.8066 28.015 37.2163 28.9221L31.6604 32.0799L31.5584 32.1422Z" fill="#B4A191"/>
<path fill-rule="evenodd" clip-rule="evenodd" d="M31.6598 32.0796L26.8608 27.2805L12.6904 41.4509C13.2092 42.0065 14.0794 42.0688 15.0517 41.5274L31.6598 32.0796Z" fill="#8F755E"/>
<path fill-rule="evenodd" clip-rule="evenodd" d="M31.6598 22.4818L15.0517 13.0481C14.0794 12.4925 13.2063 12.5691 12.6904 13.1247L26.8608 27.2808L31.6598 22.4818Z" fill="#67584B"/>
</g>
</svg>