<svg xmlns="http://www.w3.org/2000/svg" width="21" height="20" viewBox="0 0 21 20" fill="none">
<path d="M14.7542 0H6.16918C2.44013 0 0.217041 2.17 0.217041 5.81V14.18C0.217041 17.83 2.44013 20 6.16918 20H14.744C18.473 20 20.6961 17.83 20.6961 14.19V5.81C20.7063 2.17 18.4832 0 14.7542 0ZM15.3586 7.7L9.54992 13.37C9.40649 13.51 9.21184 13.59 9.00695 13.59C8.80206 13.59 8.60741 13.51 8.46398 13.37L5.56475 10.54C5.26765 10.25 5.26765 9.77 5.56475 9.48C5.86184 9.19 6.35359 9.19 6.65068 9.48L9.00695 11.78L14.2727 6.64C14.5698 6.35 15.0615 6.35 15.3586 6.64C15.6557 6.93 15.6557 7.4 15.3586 7.7Z" fill="#8FB69F"/>
</svg>