<svg xmlns="http://www.w3.org/2000/svg" width="36" height="37" viewBox="0 0 36 37" fill="none">
<path d="M24.285 3.5H11.715C6.255 3.5 3 6.755 3 12.215V24.77C3 30.245 6.255 33.5 11.715 33.5H24.27C29.73 33.5 32.985 30.245 32.985 24.785V12.215C33 6.755 29.745 3.5 24.285 3.5ZM18 24.32C14.79 24.32 12.18 21.71 12.18 18.5C12.18 15.29 14.79 12.68 18 12.68C21.21 12.68 23.82 15.29 23.82 18.5C23.82 21.71 21.21 24.32 18 24.32ZM26.88 10.82C26.805 11 26.7 11.165 26.565 11.315C26.415 11.45 26.25 11.555 26.07 11.63C25.89 11.705 25.695 11.75 25.5 11.75C25.095 11.75 24.72 11.6 24.435 11.315C24.3 11.165 24.195 11 24.12 10.82C24.045 10.64 24 10.445 24 10.25C24 10.055 24.045 9.86 24.12 9.68C24.195 9.485 24.3 9.335 24.435 9.185C24.78 8.84 25.305 8.675 25.785 8.78C25.89 8.795 25.98 8.825 26.07 8.87C26.16 8.9 26.25 8.945 26.34 9.005C26.415 9.05 26.49 9.125 26.565 9.185C26.7 9.335 26.805 9.485 26.88 9.68C26.955 9.86 27 10.055 27 10.25C27 10.445 26.955 10.64 26.88 10.82Z" fill="#302A25"/>
</svg>