<svg xmlns="http://www.w3.org/2000/svg" width="14" height="14" viewBox="0 0 14 14" fill="none">
<path d="M6.13029 0.532554C6.51349 -0.142704 7.48651 -0.142704 7.86971 0.532554L9.76013 3.86372C9.84925 4.02076 9.97923 4.15075 10.1363 4.23987L13.4674 6.13029C14.1427 6.51349 14.1427 7.48651 13.4674 7.86971L10.1363 9.76013C9.97923 9.84925 9.84925 9.97924 9.76013 10.1363L7.86971 13.4674C7.48651 14.1427 6.51349 14.1427 6.13029 13.4674L4.23987 10.1363C4.15075 9.97924 4.02076 9.84925 3.86372 9.76013L0.532554 7.86971C-0.142704 7.48651 -0.142704 6.51349 0.532553 6.13029L3.86372 4.23987C4.02076 4.15075 4.15075 4.02076 4.23987 3.86372L6.13029 0.532554Z" fill="#8FB69F"/>
</svg>