<svg xmlns="http://www.w3.org/2000/svg" width="32" height="32" fill="none" class=""><circle cx="16" cy="16" r="16" fill="#8FB69F"></circle><path fill="#fff" d="M12.25 13.344c.143-1.984 1.647-3.136 3.791-3.136 2.256 0 3.488 1.312 3.488 2.976 0 1.328-.832 2.368-2.048 2.64v.08c1.344.32 2.256 1.312 2.256 2.976 0 1.792-1.248 3.2-3.664 3.2-2.192 0-3.824-1.168-4-3.408h1.408c.144 1.232 1.04 2.176 2.576 2.176 1.552 0 2.288-.912 2.288-2.096 0-1.632-1.136-2.256-3.216-2.256h-.368V15.28h.384c1.936-.016 2.976-.608 2.976-1.952 0-1.104-.736-1.872-2.128-1.872-1.36 0-2.176.768-2.32 1.888H12.25Z"></path></svg>