<svg xmlns="http://www.w3.org/2000/svg" width="17" height="16" viewBox="0 0 17 16" fill="none">
<path d="M8.78289 1.33331C5.01969 1.33331 1.95312 4.32665 1.95312 7.99998C1.95312 11.6733 5.01969 14.6666 8.78289 14.6666C12.5461 14.6666 15.6127 11.6733 15.6127 7.99998C15.6127 4.32665 12.5461 1.33331 8.78289 1.33331ZM12.0475 6.46665L8.17504 10.2466C8.07942 10.34 7.94966 10.3933 7.81306 10.3933C7.67647 10.3933 7.5467 10.34 7.45109 10.2466L5.51826 8.35998C5.3202 8.16665 5.3202 7.84665 5.51826 7.65331C5.71633 7.45998 6.04415 7.45998 6.24222 7.65331L7.81306 9.18665L11.3236 5.75998C11.5216 5.56665 11.8495 5.56665 12.0475 5.75998C12.2456 5.95331 12.2456 6.26665 12.0475 6.46665Z" fill="#60554B"/>
</svg>