<svg xmlns="http://www.w3.org/2000/svg" width="32" height="32" fill="none" class=""><circle cx="16" cy="16" r="16" fill="#8FB69F"></circle><path fill="#fff" d="M12.214 20.832c1.355-1.088 2.416-1.979 3.184-2.672a13.034 13.034 0 0 0 1.936-2.192c.534-.768.8-1.52.8-2.256 0-.693-.17-1.237-.512-1.632-.33-.405-.869-.608-1.616-.608-.725 0-1.29.23-1.696.688-.394.448-.608 1.05-.64 1.808h-1.408c.043-1.195.406-2.117 1.088-2.768.683-.65 1.563-.976 2.64-.976 1.1 0 1.968.304 2.608.912.651.608.976 1.445.976 2.512 0 .885-.266 1.75-.8 2.592a11.416 11.416 0 0 1-1.792 2.208c-.672.63-1.53 1.365-2.576 2.208h5.504v1.216h-7.696v-1.04Z"></path></svg>